<svg width="5129" height="1093" viewBox="0 0 5129 1093" fill="none" xmlns="http://www.w3.org/2000/svg">
<g opacity="0.5" filter="url(#filter0_f_691_7058)">
<path d="M1829.52 617.968C1862.55 664.32 2106.98 985.065 2547.18 985.065C2996 985.065 3184.16 664.32 3209.01 617.968H3211.89V855.596C3211.89 855.596 2977.1 1042 2547.18 1042C2154.41 1042 1825.65 855.596 1825.65 855.596V617.968H1829.52Z" stroke="black" stroke-width="0.6278" stroke-miterlimit="10"/>
<path d="M1846.67 617.968C1915.53 704.882 2152.77 962.356 2547.17 962.356C2949.29 962.356 3142.17 704.882 3195.83 617.968H3211.88V832.887C3211.88 832.887 2977.09 1019.29 2547.17 1019.29C2154.4 1019.29 1825.64 832.887 1825.64 832.887V617.968H1846.67Z" stroke="black" stroke-width="0.6278" stroke-miterlimit="10"/>
<path d="M1902.27 871.122V703.394" stroke="black" stroke-width="0.6278" stroke-miterlimit="10"/>
<path d="M2005.01 913.584V795.63" stroke="black" stroke-width="0.6278" stroke-miterlimit="10"/>
<path d="M2107.77 948.882V802.511" stroke="black" stroke-width="0.6278" stroke-miterlimit="10"/>
<path d="M2210.51 977.211V802.511" stroke="black" stroke-width="0.6278" stroke-miterlimit="10"/>
<path d="M2313.26 998.139V802.511" stroke="black" stroke-width="0.6278" stroke-miterlimit="10"/>
<path d="M2416.02 1012.86V802.511" stroke="black" stroke-width="0.6278" stroke-miterlimit="10"/>
<path d="M2518.77 1018.59V802.511" stroke="black" stroke-width="0.6278" stroke-miterlimit="10"/>
<path d="M2621.52 1017.19V802.511" stroke="black" stroke-width="0.6278" stroke-miterlimit="10"/>
<path d="M2724.27 1008V802.511" stroke="black" stroke-width="0.6278" stroke-miterlimit="10"/>
<path d="M2827.02 991.324V802.511" stroke="black" stroke-width="0.6278" stroke-miterlimit="10"/>
<path d="M2929.77 965.346V802.511" stroke="black" stroke-width="0.6278" stroke-miterlimit="10"/>
<path d="M3032.53 929.48V801.19" stroke="black" stroke-width="0.6278" stroke-miterlimit="10"/>
<path d="M3135.27 880.892V724.128" stroke="black" stroke-width="0.6278" stroke-miterlimit="10"/>
<path d="M1825.65 832.887L1902.27 703.394" stroke="black" stroke-width="0.6278" stroke-miterlimit="10"/>
<path d="M1902.27 871.124L2005.01 795.632" stroke="black" stroke-width="0.6278" stroke-miterlimit="10"/>
<path d="M2005.01 913.585L2107.77 867.001" stroke="black" stroke-width="0.6278" stroke-miterlimit="10"/>
<path d="M2107.77 948.884L2210.52 917.199" stroke="black" stroke-width="0.6278" stroke-miterlimit="10"/>
<path d="M2210.52 977.212L2311.26 953.392" stroke="black" stroke-width="0.6278" stroke-miterlimit="10"/>
<path d="M2313.27 998.141L2416.02 975.056" stroke="black" stroke-width="0.6278" stroke-miterlimit="10"/>
<path d="M2416.02 1012.86L2518.77 984.415" stroke="black" stroke-width="0.6278" stroke-miterlimit="10"/>
<path d="M2518.76 1018.59L2621.51 982.036" stroke="black" stroke-width="0.6278" stroke-miterlimit="10"/>
<path d="M2621.52 1017.2L2724.27 967.068" stroke="black" stroke-width="0.6278" stroke-miterlimit="10"/>
<path d="M2724.27 1008.01L2827.02 937.721" stroke="black" stroke-width="0.6278" stroke-miterlimit="10"/>
<path d="M2827.02 991.326L2929.78 891.138" stroke="black" stroke-width="0.6278" stroke-miterlimit="10"/>
<path d="M2929.78 965.347L3032.52 822.555" stroke="black" stroke-width="0.6278" stroke-miterlimit="10"/>
<path d="M3032.53 929.48L3135.27 724.128" stroke="black" stroke-width="0.6278" stroke-miterlimit="10"/>
<path d="M3135.27 880.892L3209 617.968" stroke="black" stroke-width="0.6278" stroke-miterlimit="10"/>
<path d="M1825.65 832.886L1855.23 871.122L1915.88 877.007L1941.92 911.014L2005.01 913.585L2039.37 948.882H2107.77L2151.2 984.415L2208.65 977.211L2260.89 1011.26L2313.26 998.139L2359.06 1028.43L2418.52 1012.86L2468.77 1039.58L2518.77 1018.59L2570.14 1041.82L2621.51 1017.19L2682.73 1035.65L2724.27 1008L2784.67 1022.05L2827.02 991.324L2890.53 999.11L2929.77 965.347L3001.4 964.226L3032.52 929.479L3103.01 920.573L3135.27 880.891L3184.97 874.37L3211.88 833.969" stroke="black" stroke-width="0.6278" stroke-miterlimit="10"/>
<path d="M3211.88 855.596L3170.69 860.667L3145.32 898.257L3083.9 906.626L3049.52 945.118L2986.5 946.919L2942.14 984.357L2878.4 979.518L2836.92 1011.91L2779 1000.31L2730.32 1030.29L2672.9 1013.84L2621.51 1040.12L2570.14 1019.29L2518.77 1041.82L2469.27 1016.9L2413.91 1035.1L2360.7 1005.96L2305.37 1019.86L2260.89 988.552L2204.76 998.516L2159.14 963.913L2096.6 968.095L2053.33 931.067L1990.3 930.653L1953.64 893.22L1895.52 890.496L1867.14 854.315L1825.65 855.596" stroke="black" stroke-width="0.6278" stroke-miterlimit="10"/>
<path d="M1829.52 617.968L1875.3 652.05L1902.26 703.394L1962.65 738.484L2005.01 795.631L2076 823.498L2107.77 865.299L2166.73 874.54L2210.51 917.198H2270.24L2313.26 953.391L2370.11 944.362L2414.45 975.055L2467.39 958.78L2518.77 984.415L2568.12 962.12L2621.51 982.035L2661.38 955.086L2724.27 967.066L2760.72 935.724L2827.02 937.72L2861.47 901.485L2929.77 891.137L2959.89 850.835L3031.77 823.593L3059.82 777.009L3134.69 725.305L3154.23 677.308L3209 617.968" stroke="black" stroke-width="0.6278" stroke-miterlimit="10"/>
<path d="M3195.83 617.968L3173.38 674.407L3114.22 724.127L3077.66 783.543L3014.57 813.695L2974.52 864.303L2913.18 876.015L2874.73 918.441H2820.9L2772.44 955.251L2714.15 946.44L2665.32 977.274L2617.77 959.628L2567.07 984.415L2517.3 961.859L2462.99 981.08L2416.02 952.59L2361.8 965.302L2319.4 932.203L2260.89 936.679L2220.15 898.501L2156.65 892.24L2122.07 851.116L2056.49 833.375L2018.47 783.613L1950.9 750.787L1911.81 690.905L1860.99 658.195L1846.68 617.968" stroke="black" stroke-width="0.6278" stroke-miterlimit="10"/>
<path fill-rule="evenodd" clip-rule="evenodd" d="M1836.09 617.967L1825.07 888.578H1735.53L1724.5 617.967H1836.09ZM1790.82 795.135V810.91C1790.82 816.853 1786.11 821.667 1780.3 821.667C1774.48 821.667 1769.77 816.848 1769.77 810.91V795.135H1790.82ZM1764.36 867.003H1796.25V877.864H1764.36V867.003Z" fill="black"/>
<path d="M1820.78 888.578H1739.82V906.629H1820.78V888.578Z" fill="black"/>
<path d="M1816.28 906.626H1744.32V911.015H1816.28V906.626Z" fill="black"/>
<path d="M3248.34 794.385H1526.83V802.937H3248.34V794.385Z" fill="black" stroke="black" stroke-width="0.6278" stroke-miterlimit="10"/>
<path d="M3240.64 796.096H1526.83V799.516H3240.64V796.096Z" fill="black" stroke="black" stroke-width="0.6278" stroke-miterlimit="10"/>
<path fill-rule="evenodd" clip-rule="evenodd" d="M1762.84 617.968L1751.02 913.437H1663.07L1651.25 617.968H1762.84ZM1717.38 819.991V835.761C1717.38 841.708 1712.75 846.523 1707.04 846.523C1701.33 846.523 1696.7 841.708 1696.7 835.761V819.991H1717.38ZM1691.38 891.859H1722.71V902.719H1691.38V891.859Z" fill="black"/>
<path d="M1751.02 913.437V913.594H1751.17L1751.18 913.443L1751.02 913.437ZM1762.84 617.968L1763 617.974L1763 617.811H1762.84V617.968ZM1663.07 913.437L1662.92 913.443L1662.92 913.594H1663.07V913.437ZM1651.25 617.968V617.811H1651.09L1651.09 617.974L1651.25 617.968ZM1717.38 819.991H1717.54V819.834H1717.38V819.991ZM1696.7 819.991V819.834H1696.55V819.991H1696.7ZM1722.71 891.859H1722.86V891.702H1722.71V891.859ZM1691.38 891.859V891.702H1691.23V891.859H1691.38ZM1722.71 902.719V902.876H1722.86V902.719H1722.71ZM1691.38 902.719H1691.23V902.876H1691.38V902.719ZM1751.18 913.443L1763 617.974L1762.68 617.961L1750.86 913.43L1751.18 913.443ZM1663.07 913.594H1751.02V913.28H1663.07V913.594ZM1651.09 617.974L1662.92 913.443L1663.23 913.43L1651.41 617.961L1651.09 617.974ZM1762.84 617.811H1651.25V618.124H1762.84V617.811ZM1717.54 835.761V819.991H1717.23V835.761H1717.54ZM1707.04 846.68C1712.85 846.68 1717.54 841.789 1717.54 835.761H1717.23C1717.23 841.627 1712.66 846.366 1707.04 846.366V846.68ZM1696.55 835.761C1696.55 841.789 1701.24 846.68 1707.04 846.68V846.366C1701.42 846.366 1696.86 841.627 1696.86 835.761H1696.55ZM1696.55 819.991V835.761H1696.86V819.991H1696.55ZM1717.38 819.834H1696.7V820.148H1717.38V819.834ZM1722.71 891.702H1691.38V892.016H1722.71V891.702ZM1722.86 902.719V891.859H1722.55V902.719H1722.86ZM1691.38 902.876H1722.71V902.562H1691.38V902.876ZM1691.23 891.859V902.719H1691.54V891.859H1691.23Z" fill="black"/>
<path d="M1746.8 913.437H1667.29V931.489H1746.8V913.437Z" fill="black"/>
<path d="M1742.39 931.487H1671.71V935.872H1742.39V931.487Z" fill="black"/>
</g>
<path d="M1801.32 637.048C1834.35 567.52 2078.79 86.3983 2518.99 86.3983C2967.81 86.3983 3155.97 567.52 3180.82 637.048H3183.71V280.609C3183.71 280.609 2948.91 1 2518.99 1C2126.21 1 1797.45 280.609 1797.45 280.609V637.048H1801.32Z" stroke="black" stroke-width="0.6278" stroke-miterlimit="10"/>
<path d="M1818.48 637.049C1887.33 506.676 2124.57 120.469 2518.98 120.469C2921.1 120.469 3113.98 506.683 3167.64 637.049H3183.7V314.667C3183.7 314.667 2948.9 35.0581 2518.98 35.0581C2126.2 35.0581 1797.44 314.667 1797.44 314.667V637.049H1818.48Z" stroke="black" stroke-width="0.6278" stroke-miterlimit="10"/>
<path d="M1874.07 257.319V508.914" stroke="black" stroke-width="0.6278" stroke-miterlimit="10"/>
<path d="M1976.82 193.617V370.557" stroke="black" stroke-width="0.6278" stroke-miterlimit="10"/>
<path d="M2079.57 140.672V360.236" stroke="black" stroke-width="0.6278" stroke-miterlimit="10"/>
<path d="M2182.32 98.1772V360.236" stroke="black" stroke-width="0.6278" stroke-miterlimit="10"/>
<path d="M2285.07 66.791V360.236" stroke="black" stroke-width="0.6278" stroke-miterlimit="10"/>
<path d="M2387.83 44.7156V360.235" stroke="black" stroke-width="0.6278" stroke-miterlimit="10"/>
<path d="M2490.58 36.1169V360.235" stroke="black" stroke-width="0.6278" stroke-miterlimit="10"/>
<path d="M2593.33 38.2051V360.234" stroke="black" stroke-width="0.6278" stroke-miterlimit="10"/>
<path d="M2696.08 51.9929V360.235" stroke="black" stroke-width="0.6278" stroke-miterlimit="10"/>
<path d="M2798.83 77.0125V360.235" stroke="black" stroke-width="0.6278" stroke-miterlimit="10"/>
<path d="M2901.59 115.972V360.234" stroke="black" stroke-width="0.6278" stroke-miterlimit="10"/>
<path d="M3004.34 169.781V362.213" stroke="black" stroke-width="0.6278" stroke-miterlimit="10"/>
<path d="M3107.09 242.656V477.805" stroke="black" stroke-width="0.6278" stroke-miterlimit="10"/>
<path d="M1797.45 314.666L1874.07 508.914" stroke="black" stroke-width="0.6278" stroke-miterlimit="10"/>
<path d="M1874.07 257.319L1976.82 370.557" stroke="black" stroke-width="0.6278" stroke-miterlimit="10"/>
<path d="M1976.82 193.618L2079.57 263.494" stroke="black" stroke-width="0.6278" stroke-miterlimit="10"/>
<path d="M2079.57 140.672L2182.32 188.206" stroke="black" stroke-width="0.6278" stroke-miterlimit="10"/>
<path d="M2182.32 98.1777L2283.06 133.915" stroke="black" stroke-width="0.6278" stroke-miterlimit="10"/>
<path d="M2285.07 66.7915L2387.83 101.413" stroke="black" stroke-width="0.6278" stroke-miterlimit="10"/>
<path d="M2387.83 44.717L2490.58 87.379" stroke="black" stroke-width="0.6278" stroke-miterlimit="10"/>
<path d="M2490.57 36.1179L2593.32 90.9424" stroke="black" stroke-width="0.6278" stroke-miterlimit="10"/>
<path d="M2593.33 38.2065L2696.08 113.395" stroke="black" stroke-width="0.6278" stroke-miterlimit="10"/>
<path d="M2696.08 51.9944L2798.83 157.416" stroke="black" stroke-width="0.6278" stroke-miterlimit="10"/>
<path d="M2798.83 77.0139L2901.59 227.298" stroke="black" stroke-width="0.6278" stroke-miterlimit="10"/>
<path d="M2901.59 115.973L3004.34 330.169" stroke="black" stroke-width="0.6278" stroke-miterlimit="10"/>
<path d="M3004.34 169.781L3107.09 477.806" stroke="black" stroke-width="0.6278" stroke-miterlimit="10"/>
<path d="M3107.09 242.657L3180.82 637.047" stroke="black" stroke-width="0.6278" stroke-miterlimit="10"/>
<path d="M1797.45 314.667L1827.03 257.319L1887.68 248.486L1913.72 197.474L1976.82 193.618L2011.17 140.672H2079.57L2123 87.3782L2180.45 98.177L2232.69 47.1153L2285.07 66.7912L2330.86 21.3458L2390.32 44.7163L2440.58 4.62698L2490.58 36.1182L2541.95 1.26709L2593.32 38.2073L2654.54 10.5223L2696.08 51.994L2756.48 30.9234L2798.83 77.0134L2862.35 65.3282L2901.59 115.974L2973.21 117.654L3004.33 169.782L3074.82 183.135L3107.08 242.659L3156.79 252.441L3183.7 313.043" stroke="black" stroke-width="0.6278" stroke-miterlimit="10"/>
<path d="M3183.7 280.603L3142.51 273.003L3117.14 216.61L3055.71 204.057L3021.33 146.325L2958.31 143.622L2913.95 87.4588L2850.21 94.7179L2808.74 46.1359L2750.81 63.5243L2702.13 18.5624L2644.71 43.2285L2593.32 3.82727L2541.95 35.0581L2490.58 1.26709L2441.08 38.6474L2385.72 11.3468L2332.51 55.0625L2277.18 34.2089L2232.69 81.173L2176.57 66.2208L2130.94 118.132L2068.4 111.852L2025.13 167.402L1962.1 168.016L1925.44 224.167L1867.32 228.258L1838.94 282.525L1797.45 280.603" stroke="black" stroke-width="0.6278" stroke-miterlimit="10"/>
<path d="M1801.32 637.049L1847.1 585.932L1874.07 508.914L1934.45 456.278L1976.82 370.558L2047.81 328.757L2079.57 266.054L2138.54 252.193L2182.32 188.206H2242.04L2285.07 133.915L2341.92 147.46L2386.26 101.413L2439.2 125.825L2490.57 87.3784L2539.93 120.822L2593.32 90.9429L2633.19 131.367L2696.08 113.396L2732.53 160.41L2798.83 157.415L2833.28 211.769L2901.58 227.297L2931.7 287.751L3003.58 328.615L3031.63 398.491L3106.5 476.047L3126.04 548.043L3180.82 637.049" stroke="black" stroke-width="0.6278" stroke-miterlimit="10"/>
<path d="M3167.64 637.049L3145.19 552.395L3086.03 477.808L3049.47 388.69L2986.38 343.462L2946.33 267.542L2884.99 249.98L2846.54 186.34H2792.72L2744.25 131.119L2685.96 144.342L2637.13 98.0904L2589.58 124.554L2538.88 87.3784L2489.11 121.213L2434.79 92.3749L2387.82 135.117L2333.61 116.049L2291.21 165.697L2232.69 158.978L2191.96 216.251L2128.45 225.642L2093.87 287.323L2028.29 313.935L1990.27 388.585L1922.7 437.824L1883.61 527.642L1832.79 576.707L1818.48 637.049" stroke="black" stroke-width="0.6278" stroke-miterlimit="10"/>
<path fill-rule="evenodd" clip-rule="evenodd" d="M1807.9 637.049L1796.87 231.135H1707.33L1696.31 637.049H1807.9ZM1762.63 371.295V347.633C1762.63 338.719 1757.91 331.497 1752.1 331.497C1746.29 331.497 1741.57 338.719 1741.57 347.633V371.295H1762.63ZM1736.16 247.201H1768.05V263.493H1736.16V247.201Z" fill="black"/>
<path d="M1792.58 204.056H1711.62V231.133H1792.58V204.056Z" fill="black"/>
<path d="M1788.08 197.473H1716.12V204.056H1788.08V197.473Z" fill="black"/>
<path d="M3189.37 360.185H1498.63V373.013H3189.37V360.185Z" fill="black" stroke="black" stroke-width="0.6278" stroke-miterlimit="10"/>
<path d="M3189.37 365.316H1498.63V367.882H3189.37V365.316Z" fill="black" stroke="black" stroke-width="0.6278" stroke-miterlimit="10"/>
<g opacity="0.5" filter="url(#filter1_f_691_7058)">
<path d="M353.887 607.367C386.915 653.719 631.348 974.464 1071.55 974.464C1520.37 974.464 1708.52 653.719 1733.38 607.367H1736.26V844.996C1736.26 844.996 1501.46 1031.4 1071.55 1031.4C678.776 1031.4 350.019 844.996 350.019 844.996V607.367H353.887Z" stroke="black" stroke-width="0.6278" stroke-miterlimit="10"/>
<path d="M371.041 607.367C439.893 694.281 677.135 951.755 1071.54 951.755C1473.66 951.755 1666.53 694.281 1720.19 607.367H1736.25V822.286C1736.25 822.286 1501.45 1008.69 1071.54 1008.69C678.766 1008.69 350.008 822.286 350.008 822.286V607.367H371.041Z" stroke="black" stroke-width="0.6278" stroke-miterlimit="10"/>
<path d="M426.632 860.521V692.793" stroke="black" stroke-width="0.6278" stroke-miterlimit="10"/>
<path d="M529.381 902.984V785.029" stroke="black" stroke-width="0.6278" stroke-miterlimit="10"/>
<path d="M632.137 938.281V791.91" stroke="black" stroke-width="0.6278" stroke-miterlimit="10"/>
<path d="M734.879 966.61V791.91" stroke="black" stroke-width="0.6278" stroke-miterlimit="10"/>
<path d="M837.631 987.538V791.91" stroke="black" stroke-width="0.6278" stroke-miterlimit="10"/>
<path d="M940.384 1002.25V791.91" stroke="black" stroke-width="0.6278" stroke-miterlimit="10"/>
<path d="M1043.14 1007.99V791.91" stroke="black" stroke-width="0.6278" stroke-miterlimit="10"/>
<path d="M1145.89 1006.59V791.91" stroke="black" stroke-width="0.6278" stroke-miterlimit="10"/>
<path d="M1248.64 997.403V791.91" stroke="black" stroke-width="0.6278" stroke-miterlimit="10"/>
<path d="M1351.38 980.723V791.91" stroke="black" stroke-width="0.6278" stroke-miterlimit="10"/>
<path d="M1454.14 954.745V791.91" stroke="black" stroke-width="0.6278" stroke-miterlimit="10"/>
<path d="M1556.89 918.879V790.589" stroke="black" stroke-width="0.6278" stroke-miterlimit="10"/>
<path d="M1659.64 870.291V713.527" stroke="black" stroke-width="0.6278" stroke-miterlimit="10"/>
<path d="M350.019 822.286L426.632 692.793" stroke="black" stroke-width="0.6278" stroke-miterlimit="10"/>
<path d="M426.632 860.523L529.381 785.031" stroke="black" stroke-width="0.6278" stroke-miterlimit="10"/>
<path d="M529.379 902.984L632.134 856.4" stroke="black" stroke-width="0.6278" stroke-miterlimit="10"/>
<path d="M632.135 938.283L734.883 906.598" stroke="black" stroke-width="0.6278" stroke-miterlimit="10"/>
<path d="M734.884 966.612L835.624 942.791" stroke="black" stroke-width="0.6278" stroke-miterlimit="10"/>
<path d="M837.635 987.541L940.39 964.456" stroke="black" stroke-width="0.6278" stroke-miterlimit="10"/>
<path d="M940.391 1002.26L1043.14 973.814" stroke="black" stroke-width="0.6278" stroke-miterlimit="10"/>
<path d="M1043.13 1007.99L1145.88 971.435" stroke="black" stroke-width="0.6278" stroke-miterlimit="10"/>
<path d="M1145.88 1006.6L1248.64 956.467" stroke="black" stroke-width="0.6278" stroke-miterlimit="10"/>
<path d="M1248.64 997.405L1351.39 927.12" stroke="black" stroke-width="0.6278" stroke-miterlimit="10"/>
<path d="M1351.39 980.726L1454.14 880.537" stroke="black" stroke-width="0.6278" stroke-miterlimit="10"/>
<path d="M1454.14 954.747L1556.89 811.955" stroke="black" stroke-width="0.6278" stroke-miterlimit="10"/>
<path d="M1556.89 918.879L1659.64 713.527" stroke="black" stroke-width="0.6278" stroke-miterlimit="10"/>
<path d="M1659.64 870.292L1733.37 607.367" stroke="black" stroke-width="0.6278" stroke-miterlimit="10"/>
<path d="M350.016 822.285L379.592 860.521L440.243 866.406L466.285 900.413L529.378 902.984L563.733 938.281H632.133L675.563 973.814L733.015 966.61L785.254 1000.66L837.63 987.538L883.422 1017.83L942.882 1002.25L993.138 1028.98L1043.13 1007.99L1094.5 1031.22L1145.88 1006.59L1207.1 1025.05L1248.64 997.403L1309.04 1011.45L1351.38 980.723L1414.9 988.509L1454.14 954.745L1525.76 953.625L1556.89 918.878L1627.38 909.972L1659.64 870.29L1709.34 863.769L1736.25 823.368" stroke="black" stroke-width="0.6278" stroke-miterlimit="10"/>
<path d="M1736.25 844.995L1695.06 850.065L1669.69 887.656L1608.26 896.025L1573.89 934.517L1510.87 936.318L1466.51 973.756L1402.76 968.917L1361.29 1001.3L1303.37 989.713L1254.69 1019.69L1197.26 1003.24L1145.88 1029.51L1094.5 1008.69L1043.13 1031.22L993.634 1006.3L938.277 1024.5L885.064 995.358L829.738 1009.26L785.254 977.951L729.128 987.915L683.504 953.312L620.962 957.494L577.693 920.465L514.662 920.052L478.007 882.619L419.885 879.895L391.506 843.714L350.016 844.995" stroke="black" stroke-width="0.6278" stroke-miterlimit="10"/>
<path d="M353.884 607.367L399.663 641.449L426.629 692.793L487.014 727.884L529.378 785.03L600.369 812.897L632.132 854.699L691.097 863.939L734.881 906.597H794.602L837.629 942.791L894.474 933.761L938.815 964.454L991.755 948.18L1043.13 973.814L1092.48 951.519L1145.88 971.434L1185.75 944.485L1248.64 956.466L1285.09 925.123L1351.38 927.12L1385.83 890.884L1454.14 880.536L1484.25 840.234L1556.14 812.992L1584.19 766.408L1659.05 714.704L1678.59 666.708L1733.37 607.367" stroke="black" stroke-width="0.6278" stroke-miterlimit="10"/>
<path d="M1720.19 607.367L1697.75 663.807L1638.58 713.527L1602.02 772.942L1538.93 803.094L1498.88 853.703L1437.54 865.415L1399.1 907.841H1345.27L1296.81 944.65L1238.51 935.839L1189.68 966.673L1142.14 949.027L1091.43 973.814L1041.67 951.258L987.353 970.479L940.383 941.989L886.167 954.701L843.765 921.602L785.253 926.078L744.519 887.9L681.017 881.639L646.433 840.515L580.853 822.774L542.835 773.012L475.266 740.186L436.175 680.304L385.355 647.594L371.042 607.367" stroke="black" stroke-width="0.6278" stroke-miterlimit="10"/>
<path fill-rule="evenodd" clip-rule="evenodd" d="M360.459 607.366L349.432 877.978H259.898L248.87 607.366H360.459ZM315.191 784.535V800.309C315.191 806.252 310.476 811.066 304.665 811.066C298.85 811.066 294.139 806.248 294.139 800.309V784.535H315.191ZM288.725 856.402H320.614V867.263H288.725V856.402Z" fill="black"/>
<path d="M345.143 877.977H264.189V896.029H345.143V877.977Z" fill="black"/>
<path d="M340.642 896.025H268.687V900.414H340.642V896.025Z" fill="black"/>
<path d="M1772.71 783.785H51.1997V792.337H1772.71V783.785Z" fill="black" stroke="black" stroke-width="0.6278" stroke-miterlimit="10"/>
<path d="M1765.01 785.495H51.1997V788.916H1765.01V785.495Z" fill="black" stroke="black" stroke-width="0.6278" stroke-miterlimit="10"/>
<path fill-rule="evenodd" clip-rule="evenodd" d="M287.206 607.367L275.385 902.836H187.44L175.616 607.367H287.206ZM241.751 809.39V825.16C241.751 831.107 237.12 835.922 231.408 835.922C225.697 835.922 221.07 831.107 221.07 825.16V809.39H241.751ZM215.75 881.258H247.072V892.118H215.75V881.258Z" fill="black"/>
<path d="M275.385 902.836V902.993H275.536L275.542 902.842L275.385 902.836ZM287.206 607.367L287.362 607.373L287.369 607.21H287.206V607.367ZM187.44 902.836L187.284 902.842L187.29 902.993H187.44V902.836ZM175.616 607.367V607.21H175.453L175.459 607.373L175.616 607.367ZM241.751 809.39H241.908V809.233H241.751V809.39ZM221.07 809.39V809.233H220.913V809.39H221.07ZM247.072 881.258H247.229V881.101H247.072V881.258ZM215.75 881.258V881.101H215.593V881.258H215.75ZM247.072 892.118V892.275H247.229V892.118H247.072ZM215.75 892.118H215.593V892.275H215.75V892.118ZM275.542 902.842L287.362 607.373L287.049 607.36L275.228 902.83L275.542 902.842ZM187.44 902.993H275.385V902.679H187.44V902.993ZM175.459 607.373L187.284 902.842L187.597 902.83L175.773 607.36L175.459 607.373ZM287.206 607.21H175.616V607.524H287.206V607.21ZM241.908 825.16V809.39H241.594V825.16H241.908ZM231.408 836.079C237.212 836.079 241.908 831.188 241.908 825.16H241.594C241.594 831.027 237.028 835.765 231.408 835.765V836.079ZM220.913 825.16C220.913 831.188 225.604 836.079 231.408 836.079V835.765C225.789 835.765 221.227 831.027 221.227 825.16H220.913ZM220.913 809.39V825.16H221.227V809.39H220.913ZM241.751 809.233H221.07V809.547H241.751V809.233ZM247.072 881.101H215.75V881.415H247.072V881.101ZM247.229 892.118V881.258H246.915V892.118H247.229ZM215.75 892.275H247.072V891.961H215.75V892.275ZM215.593 881.258V892.118H215.907V881.258H215.593Z" fill="black"/>
<path d="M271.167 902.836H191.658V920.888H271.167V902.836Z" fill="black"/>
<path d="M266.754 920.886H196.075V925.271H266.754V920.886Z" fill="black"/>
</g>
<path d="M325.688 637.048C358.716 567.52 603.151 86.3983 1043.36 86.3983C1492.18 86.3983 1680.34 567.52 1705.19 637.048H1708.07V280.609C1708.07 280.609 1473.28 1 1043.36 1C650.58 1 321.819 280.609 321.819 280.609V637.048H325.688Z" stroke="black" stroke-width="0.6278" stroke-miterlimit="10"/>
<path d="M342.843 637.049C411.696 506.676 648.941 120.469 1043.35 120.469C1445.47 120.469 1638.35 506.683 1692.01 637.049H1708.06V314.667C1708.06 314.667 1473.27 35.0581 1043.35 35.0581C650.571 35.0581 321.81 314.667 321.81 314.667V637.049H342.843Z" stroke="black" stroke-width="0.6278" stroke-miterlimit="10"/>
<path d="M398.435 257.319V508.914" stroke="black" stroke-width="0.6278" stroke-miterlimit="10"/>
<path d="M501.184 193.617V370.557" stroke="black" stroke-width="0.6278" stroke-miterlimit="10"/>
<path d="M603.941 140.672V360.236" stroke="black" stroke-width="0.6278" stroke-miterlimit="10"/>
<path d="M706.686 98.1772V360.236" stroke="black" stroke-width="0.6278" stroke-miterlimit="10"/>
<path d="M809.438 66.791V360.236" stroke="black" stroke-width="0.6278" stroke-miterlimit="10"/>
<path d="M912.192 44.7156V360.235" stroke="black" stroke-width="0.6278" stroke-miterlimit="10"/>
<path d="M1014.94 36.1169V360.235" stroke="black" stroke-width="0.6278" stroke-miterlimit="10"/>
<path d="M1117.7 38.2051V360.234" stroke="black" stroke-width="0.6278" stroke-miterlimit="10"/>
<path d="M1220.45 51.9929V360.235" stroke="black" stroke-width="0.6278" stroke-miterlimit="10"/>
<path d="M1323.2 77.0125V360.235" stroke="black" stroke-width="0.6278" stroke-miterlimit="10"/>
<path d="M1425.95 115.972V360.234" stroke="black" stroke-width="0.6278" stroke-miterlimit="10"/>
<path d="M1528.7 169.781V362.213" stroke="black" stroke-width="0.6278" stroke-miterlimit="10"/>
<path d="M1631.45 242.656V477.805" stroke="black" stroke-width="0.6278" stroke-miterlimit="10"/>
<path d="M321.82 314.666L398.435 508.914" stroke="black" stroke-width="0.6278" stroke-miterlimit="10"/>
<path d="M398.435 257.319L501.185 370.557" stroke="black" stroke-width="0.6278" stroke-miterlimit="10"/>
<path d="M501.182 193.618L603.938 263.494" stroke="black" stroke-width="0.6278" stroke-miterlimit="10"/>
<path d="M603.939 140.672L706.688 188.206" stroke="black" stroke-width="0.6278" stroke-miterlimit="10"/>
<path d="M706.689 98.1777L807.43 133.915" stroke="black" stroke-width="0.6278" stroke-miterlimit="10"/>
<path d="M809.441 66.7915L912.196 101.413" stroke="black" stroke-width="0.6278" stroke-miterlimit="10"/>
<path d="M912.198 44.717L1014.95 87.379" stroke="black" stroke-width="0.6278" stroke-miterlimit="10"/>
<path d="M1014.94 36.1179L1117.69 90.9424" stroke="black" stroke-width="0.6278" stroke-miterlimit="10"/>
<path d="M1117.69 38.2065L1220.45 113.395" stroke="black" stroke-width="0.6278" stroke-miterlimit="10"/>
<path d="M1220.45 51.9944L1323.2 157.416" stroke="black" stroke-width="0.6278" stroke-miterlimit="10"/>
<path d="M1323.2 77.0139L1425.95 227.298" stroke="black" stroke-width="0.6278" stroke-miterlimit="10"/>
<path d="M1425.96 115.973L1528.71 330.169" stroke="black" stroke-width="0.6278" stroke-miterlimit="10"/>
<path d="M1528.71 169.781L1631.45 477.806" stroke="black" stroke-width="0.6278" stroke-miterlimit="10"/>
<path d="M1631.45 242.657L1705.18 637.047" stroke="black" stroke-width="0.6278" stroke-miterlimit="10"/>
<path d="M321.818 314.667L351.394 257.319L412.046 248.486L438.088 197.474L501.182 193.618L535.537 140.672H603.938L647.368 87.3782L704.821 98.177L757.061 47.1153L809.436 66.7912L855.229 21.3458L914.69 44.7163L964.946 4.62698L1014.94 36.1182L1066.31 1.26709L1117.69 38.2073L1178.91 10.5223L1220.45 51.994L1280.85 30.9234L1323.2 77.0134L1386.71 65.3282L1425.95 115.974L1497.58 117.654L1528.7 169.782L1599.19 183.135L1631.45 242.659L1681.15 252.441L1708.06 313.043" stroke="black" stroke-width="0.6278" stroke-miterlimit="10"/>
<path d="M1708.06 280.603L1666.87 273.003L1641.51 216.61L1580.08 204.057L1545.7 146.325L1482.68 143.622L1438.32 87.4588L1374.57 94.7179L1333.1 46.1359L1275.18 63.5243L1226.5 18.5624L1169.07 43.2285L1117.69 3.82727L1066.31 35.0581L1014.94 1.26709L965.442 38.6474L910.084 11.3468L856.872 55.0625L801.545 34.2089L757.061 81.173L700.934 66.2208L655.309 118.132L592.767 111.852L549.497 167.402L486.465 168.016L449.81 224.167L391.688 228.258L363.309 282.525L321.818 280.603" stroke="black" stroke-width="0.6278" stroke-miterlimit="10"/>
<path d="M325.686 637.049L371.466 585.932L398.432 508.914L458.817 456.278L501.181 370.558L572.173 328.757L603.937 266.054L662.903 252.193L706.686 188.206H766.408L809.436 133.915L866.281 147.46L910.623 101.413L963.563 125.825L1014.94 87.3784L1064.29 120.822L1117.69 90.9429L1157.56 131.367L1220.45 113.396L1256.9 160.41L1323.2 157.415L1357.64 211.769L1425.95 227.297L1456.07 287.751L1527.95 328.615L1556 398.491L1630.87 476.047L1650.41 548.043L1705.18 637.049" stroke="black" stroke-width="0.6278" stroke-miterlimit="10"/>
<path d="M1692.01 637.049L1669.56 552.395L1610.4 477.808L1573.83 388.69L1510.75 343.462L1470.69 267.542L1409.35 249.98L1370.91 186.34H1317.08L1268.62 131.119L1210.32 144.342L1161.49 98.0904L1113.94 124.554L1063.24 87.3784L1013.48 121.213L959.161 92.3749L912.19 135.117L857.973 116.049L815.572 165.697L757.059 158.978L716.325 216.251L652.822 225.642L618.237 287.323L552.657 313.935L514.638 388.585L447.069 437.824L407.977 527.642L357.157 576.707L342.844 637.049" stroke="black" stroke-width="0.6278" stroke-miterlimit="10"/>
<path fill-rule="evenodd" clip-rule="evenodd" d="M332.262 637.049L321.235 231.135H231.699L220.672 637.049H332.262ZM286.994 371.295V347.633C286.994 338.719 282.279 331.497 276.468 331.497C270.653 331.497 265.942 338.719 265.942 347.633V371.295H286.994ZM260.527 247.201H292.417V263.493H260.527V247.201Z" fill="black"/>
<path d="M316.944 204.056H235.99V231.133H316.944V204.056Z" fill="black"/>
<path d="M312.443 197.473H240.487V204.056H312.443V197.473Z" fill="black"/>
<path d="M1713.73 360.185H23V373.013H1713.73V360.185Z" fill="black" stroke="black" stroke-width="0.6278" stroke-miterlimit="10"/>
<path d="M1713.73 365.316H23V367.882H1713.73V365.316Z" fill="black" stroke="black" stroke-width="0.6278" stroke-miterlimit="10"/>
<g opacity="0.5" filter="url(#filter2_f_691_7058)">
<path d="M3350.2 613.727C3383.23 660.079 3627.66 980.824 4067.87 980.824C4516.68 980.824 4704.84 660.079 4729.69 613.727H4732.57V851.355C4732.57 851.355 4497.78 1037.76 4067.87 1037.76C3675.09 1037.76 3346.33 851.355 3346.33 851.355V613.727H3350.2Z" stroke="black" stroke-width="0.6278" stroke-miterlimit="10"/>
<path d="M3367.36 613.727C3436.21 700.641 3673.45 958.115 4067.86 958.115C4469.98 958.115 4662.85 700.641 4716.51 613.727H4732.57V828.646C4732.57 828.646 4497.77 1015.05 4067.86 1015.05C3675.08 1015.05 3346.33 828.646 3346.33 828.646V613.727H3367.36Z" stroke="black" stroke-width="0.6278" stroke-miterlimit="10"/>
<path d="M3422.95 866.881V699.153" stroke="black" stroke-width="0.6278" stroke-miterlimit="10"/>
<path d="M3525.7 909.344V791.389" stroke="black" stroke-width="0.6278" stroke-miterlimit="10"/>
<path d="M3628.45 944.641V798.27" stroke="black" stroke-width="0.6278" stroke-miterlimit="10"/>
<path d="M3731.19 972.97V798.27" stroke="black" stroke-width="0.6278" stroke-miterlimit="10"/>
<path d="M3833.95 993.898V798.27" stroke="black" stroke-width="0.6278" stroke-miterlimit="10"/>
<path d="M3936.7 1008.61V798.27" stroke="black" stroke-width="0.6278" stroke-miterlimit="10"/>
<path d="M4039.45 1014.35V798.27" stroke="black" stroke-width="0.6278" stroke-miterlimit="10"/>
<path d="M4142.2 1012.95V798.27" stroke="black" stroke-width="0.6278" stroke-miterlimit="10"/>
<path d="M4244.95 1003.76V798.27" stroke="black" stroke-width="0.6278" stroke-miterlimit="10"/>
<path d="M4347.7 987.083V798.27" stroke="black" stroke-width="0.6278" stroke-miterlimit="10"/>
<path d="M4450.46 961.105V798.27" stroke="black" stroke-width="0.6278" stroke-miterlimit="10"/>
<path d="M4553.21 925.239V796.949" stroke="black" stroke-width="0.6278" stroke-miterlimit="10"/>
<path d="M4655.96 876.651V719.887" stroke="black" stroke-width="0.6278" stroke-miterlimit="10"/>
<path d="M3346.33 828.646L3422.95 699.153" stroke="black" stroke-width="0.6278" stroke-miterlimit="10"/>
<path d="M3422.95 866.883L3525.7 791.391" stroke="black" stroke-width="0.6278" stroke-miterlimit="10"/>
<path d="M3525.69 909.344L3628.45 862.76" stroke="black" stroke-width="0.6278" stroke-miterlimit="10"/>
<path d="M3628.45 944.643L3731.2 912.958" stroke="black" stroke-width="0.6278" stroke-miterlimit="10"/>
<path d="M3731.2 972.971L3831.94 949.151" stroke="black" stroke-width="0.6278" stroke-miterlimit="10"/>
<path d="M3833.95 993.901L3936.71 970.816" stroke="black" stroke-width="0.6278" stroke-miterlimit="10"/>
<path d="M3936.71 1008.62L4039.45 980.174" stroke="black" stroke-width="0.6278" stroke-miterlimit="10"/>
<path d="M4039.45 1014.35L4142.2 977.795" stroke="black" stroke-width="0.6278" stroke-miterlimit="10"/>
<path d="M4142.2 1012.96L4244.95 962.826" stroke="black" stroke-width="0.6278" stroke-miterlimit="10"/>
<path d="M4244.96 1003.76L4347.7 933.48" stroke="black" stroke-width="0.6278" stroke-miterlimit="10"/>
<path d="M4347.7 987.085L4450.46 886.897" stroke="black" stroke-width="0.6278" stroke-miterlimit="10"/>
<path d="M4450.46 961.106L4553.21 818.314" stroke="black" stroke-width="0.6278" stroke-miterlimit="10"/>
<path d="M4553.21 925.239L4655.96 719.887" stroke="black" stroke-width="0.6278" stroke-miterlimit="10"/>
<path d="M4655.95 876.652L4729.69 613.727" stroke="black" stroke-width="0.6278" stroke-miterlimit="10"/>
<path d="M3346.33 828.646L3375.91 866.881L3436.56 872.766L3462.6 906.774L3525.7 909.344L3560.05 944.641H3628.45L3671.88 980.174L3729.33 972.971L3781.57 1007.02L3833.95 993.899L3879.74 1024.19L3939.2 1008.62L3989.46 1035.34L4039.45 1014.35L4090.82 1037.58L4142.2 1012.95L4203.41 1031.41L4244.95 1003.76L4305.36 1017.81L4347.7 987.084L4411.22 994.87L4450.46 961.106L4522.08 959.986L4553.21 925.239L4623.69 916.333L4655.95 876.651L4705.66 870.13L4732.57 829.729" stroke="black" stroke-width="0.6278" stroke-miterlimit="10"/>
<path d="M4732.57 851.355L4691.38 856.426L4666.01 894.017L4604.58 902.385L4570.2 940.877L4507.18 942.679L4462.82 980.117L4399.08 975.277L4357.61 1007.67L4299.69 996.073L4251 1026.05L4193.58 1009.6L4142.2 1035.87L4090.82 1015.05L4039.45 1037.58L3989.95 1012.66L3934.59 1030.86L3881.38 1001.72L3826.06 1015.62L3781.57 984.311L3725.45 994.275L3679.82 959.673L3617.28 963.855L3574.01 926.826L3510.98 926.413L3474.32 888.979L3416.2 886.256L3387.82 850.074L3346.33 851.355" stroke="black" stroke-width="0.6278" stroke-miterlimit="10"/>
<path d="M3350.2 613.727L3395.98 647.809L3422.95 699.153L3483.33 734.244L3525.7 791.39L3596.69 819.257L3628.45 861.059L3687.42 870.299L3731.2 912.957H3790.92L3833.95 949.151L3890.79 940.121L3935.14 970.814L3988.08 954.54L4039.45 980.175L4088.8 957.879L4142.2 977.794L4182.07 950.845L4244.96 962.826L4281.41 931.484L4347.7 933.48L4382.15 897.245L4450.46 886.896L4480.57 846.595L4552.46 819.352L4580.51 772.769L4655.37 721.065L4674.91 673.068L4729.69 613.727" stroke="black" stroke-width="0.6278" stroke-miterlimit="10"/>
<path d="M4716.51 613.727L4694.07 670.167L4634.9 719.887L4598.34 779.302L4535.25 809.454L4495.2 860.063L4433.86 871.775L4395.42 914.201H4341.59L4293.13 951.01L4234.83 942.2L4186 973.033L4138.46 955.387L4087.75 980.175L4037.99 957.619L3983.67 976.84L3936.7 948.349L3882.49 961.061L3840.08 927.963L3781.57 932.438L3740.84 894.261L3677.34 888L3642.75 846.876L3577.17 829.134L3539.15 779.373L3471.59 746.547L3432.49 686.665L3381.67 653.954L3367.36 613.727" stroke="black" stroke-width="0.6278" stroke-miterlimit="10"/>
<path fill-rule="evenodd" clip-rule="evenodd" d="M3356.78 613.727L3345.76 884.338H3256.22L3245.19 613.727H3356.78ZM3311.51 790.895V806.67C3311.51 812.612 3306.8 817.427 3300.99 817.427C3295.17 817.427 3290.46 812.608 3290.46 806.67V790.895H3311.51ZM3285.05 862.763H3316.94V873.624H3285.05V862.763Z" fill="black"/>
<path d="M3341.46 884.338H3260.51V902.389H3341.46V884.338Z" fill="black"/>
<path d="M3336.96 902.386H3265.01V906.775H3336.96V902.386Z" fill="black"/>
<path fill-rule="evenodd" clip-rule="evenodd" d="M4825.19 613.728L4814.16 884.339H4724.62L4713.6 613.728H4825.19ZM4779.91 790.896V806.671C4779.91 812.614 4775.2 817.428 4769.38 817.428C4763.57 817.428 4758.86 812.609 4758.86 806.671V790.896H4779.91ZM4753.44 862.764H4785.33V873.625H4753.44V862.764Z" fill="black"/>
<path d="M4809.86 884.338H4728.91V902.39H4809.86V884.338Z" fill="black"/>
<path d="M4805.37 902.386H4733.41V906.775H4805.37V902.386Z" fill="black"/>
<path d="M5078.37 789.685H3046.99V798.272H5078.37V789.685Z" fill="black" stroke="black" stroke-width="0.6278" stroke-miterlimit="10"/>
<path d="M5078.37 792.54H3046.99V795.412H5078.37V792.54Z" fill="black" stroke="black" stroke-width="0.6278" stroke-miterlimit="10"/>
<path fill-rule="evenodd" clip-rule="evenodd" d="M3283.53 613.727L3271.71 909.196H3183.76L3171.94 613.727H3283.53ZM3238.07 815.751V831.521C3238.07 837.468 3233.44 842.283 3227.73 842.283C3222.02 842.283 3217.39 837.468 3217.39 831.521V815.751H3238.07ZM3212.07 887.618H3243.39V898.479H3212.07V887.618Z" fill="black"/>
<path d="M3271.71 909.196V909.353H3271.86L3271.86 909.203L3271.71 909.196ZM3283.53 613.727L3283.68 613.733L3283.69 613.57H3283.53V613.727ZM3183.76 909.196L3183.61 909.203L3183.61 909.353H3183.76V909.196ZM3171.94 613.727V613.57H3171.77L3171.78 613.733L3171.94 613.727ZM3238.07 815.751H3238.23V815.594H3238.07V815.751ZM3217.39 815.751V815.594H3217.23V815.751H3217.39ZM3243.39 887.618H3243.55V887.461H3243.39V887.618ZM3212.07 887.618V887.461H3211.92V887.618H3212.07ZM3243.39 898.479V898.636H3243.55V898.479H3243.39ZM3212.07 898.479H3211.92V898.636H3212.07V898.479ZM3271.86 909.203L3283.68 613.733L3283.37 613.721L3271.55 909.19L3271.86 909.203ZM3183.76 909.353H3271.71V909.039H3183.76V909.353ZM3171.78 613.733L3183.61 909.203L3183.92 909.19L3172.09 613.721L3171.78 613.733ZM3283.53 613.57H3171.94V613.884H3283.53V613.57ZM3238.23 831.521V815.751H3237.92V831.521H3238.23ZM3227.73 842.439C3233.53 842.439 3238.23 837.549 3238.23 831.521H3237.92C3237.92 837.387 3233.35 842.126 3227.73 842.126V842.439ZM3217.23 831.521C3217.23 837.549 3221.93 842.439 3227.73 842.439V842.126C3222.11 842.126 3217.55 837.387 3217.55 831.521H3217.23ZM3217.23 815.751V831.521H3217.55V815.751H3217.23ZM3238.07 815.594H3217.39V815.908H3238.07V815.594ZM3243.39 887.461H3212.07V887.775H3243.39V887.461ZM3243.55 898.479V887.618H3243.24V898.479H3243.55ZM3212.07 898.636H3243.39V898.322H3212.07V898.636ZM3211.92 887.618V898.479H3212.23V887.618H3211.92Z" fill="black"/>
<path d="M3267.49 909.197H3187.98V927.248H3267.49V909.197Z" fill="black"/>
<path d="M3263.07 927.247H3192.39V931.631H3263.07V927.247Z" fill="black"/>
<path fill-rule="evenodd" clip-rule="evenodd" d="M4898.87 613.727L4887.05 909.196H4799.11L4787.28 613.727H4898.87ZM4853.42 815.751V831.521C4853.42 837.468 4848.79 842.283 4843.08 842.283C4837.37 842.283 4832.74 837.468 4832.74 831.521V815.751H4853.42ZM4827.42 887.618H4858.74V898.479H4827.42V887.618Z" fill="black"/>
<path d="M4887.05 909.196V909.353H4887.2L4887.2 909.202L4887.05 909.196ZM4898.87 613.727L4899.03 613.733L4899.04 613.57H4898.87V613.727ZM4799.11 909.196L4798.95 909.202L4798.96 909.353H4799.11V909.196ZM4787.28 613.727V613.57H4787.12L4787.13 613.733L4787.28 613.727ZM4853.42 815.751H4853.58V815.594H4853.42V815.751ZM4832.74 815.751V815.594H4832.58V815.751H4832.74ZM4858.74 887.618H4858.9V887.461H4858.74V887.618ZM4827.42 887.618V887.461H4827.26V887.618H4827.42ZM4858.74 898.479V898.636H4858.9V898.479H4858.74ZM4827.42 898.479H4827.26V898.636H4827.42V898.479ZM4887.2 909.202L4899.03 613.733L4898.72 613.72L4886.89 909.189L4887.2 909.202ZM4799.11 909.353H4887.05V909.039H4799.11V909.353ZM4787.13 613.733L4798.95 909.202L4799.26 909.189L4787.44 613.72L4787.13 613.733ZM4898.87 613.57H4787.28V613.884H4898.87V613.57ZM4853.58 831.521V815.751H4853.26V831.521H4853.58ZM4843.08 842.439C4848.88 842.439 4853.58 837.549 4853.58 831.521H4853.26C4853.26 837.387 4848.7 842.126 4843.08 842.126V842.439ZM4832.58 831.521C4832.58 837.549 4837.27 842.439 4843.08 842.439V842.126C4837.46 842.126 4832.9 837.387 4832.9 831.521H4832.58ZM4832.58 815.751V831.521H4832.9V815.751H4832.58ZM4853.42 815.594H4832.74V815.908H4853.42V815.594ZM4858.74 887.461H4827.42V887.775H4858.74V887.461ZM4858.9 898.479V887.618H4858.58V898.479H4858.9ZM4827.42 898.636H4858.74V898.322H4827.42V898.636ZM4827.26 887.618V898.479H4827.58V887.618H4827.26Z" fill="black"/>
<path d="M4882.83 909.196H4803.32V927.248H4882.83V909.196Z" fill="black"/>
<path d="M4878.42 927.246H4807.74V931.631H4878.42V927.246Z" fill="black"/>
</g>
<path d="M3351.16 637.046C3384.18 567.518 3628.62 86.398 4068.82 86.398C4517.64 86.398 4705.8 567.518 4730.65 637.046H4733.54V280.608C4733.54 280.608 4498.74 1 4068.82 1C3676.05 1 3347.29 280.608 3347.29 280.608V637.046H3351.16Z" stroke="black" stroke-width="0.6278" stroke-miterlimit="10"/>
<path d="M3368.31 637.046C3437.16 506.674 3674.4 120.468 4068.81 120.468C4470.93 120.468 4663.81 506.681 4717.47 637.046H4733.52V314.665C4733.52 314.665 4498.73 35.0576 4068.81 35.0576C3676.04 35.0576 3347.28 314.665 3347.28 314.665V637.046H3368.31Z" stroke="black" stroke-width="0.6278" stroke-miterlimit="10"/>
<path d="M3423.9 257.318V508.912" stroke="black" stroke-width="0.6278" stroke-miterlimit="10"/>
<path d="M3526.65 193.616V370.556" stroke="black" stroke-width="0.6278" stroke-miterlimit="10"/>
<path d="M3629.41 140.671V360.235" stroke="black" stroke-width="0.6278" stroke-miterlimit="10"/>
<path d="M3732.15 98.1765V360.235" stroke="black" stroke-width="0.6278" stroke-miterlimit="10"/>
<path d="M3834.9 66.7908V360.235" stroke="black" stroke-width="0.6278" stroke-miterlimit="10"/>
<path d="M3937.66 44.7153V360.234" stroke="black" stroke-width="0.6278" stroke-miterlimit="10"/>
<path d="M4040.41 36.1167V360.234" stroke="black" stroke-width="0.6278" stroke-miterlimit="10"/>
<path d="M4143.16 38.2053V360.233" stroke="black" stroke-width="0.6278" stroke-miterlimit="10"/>
<path d="M4245.91 51.9927V360.234" stroke="black" stroke-width="0.6278" stroke-miterlimit="10"/>
<path d="M4348.66 77.0122V360.234" stroke="black" stroke-width="0.6278" stroke-miterlimit="10"/>
<path d="M4451.42 115.972V360.233" stroke="black" stroke-width="0.6278" stroke-miterlimit="10"/>
<path d="M4554.17 169.781V362.211" stroke="black" stroke-width="0.6278" stroke-miterlimit="10"/>
<path d="M4656.92 242.655V477.803" stroke="black" stroke-width="0.6278" stroke-miterlimit="10"/>
<path d="M3347.29 314.665L3423.9 508.912" stroke="black" stroke-width="0.6278" stroke-miterlimit="10"/>
<path d="M3423.9 257.318L3526.65 370.556" stroke="black" stroke-width="0.6278" stroke-miterlimit="10"/>
<path d="M3526.65 193.617L3629.4 263.493" stroke="black" stroke-width="0.6278" stroke-miterlimit="10"/>
<path d="M3629.41 140.671L3732.15 188.206" stroke="black" stroke-width="0.6278" stroke-miterlimit="10"/>
<path d="M3732.16 98.177L3832.9 133.914" stroke="black" stroke-width="0.6278" stroke-miterlimit="10"/>
<path d="M3834.91 66.7913L3937.66 101.413" stroke="black" stroke-width="0.6278" stroke-miterlimit="10"/>
<path d="M3937.66 44.717L4040.41 87.3789" stroke="black" stroke-width="0.6278" stroke-miterlimit="10"/>
<path d="M4040.41 36.1177L4143.16 90.942" stroke="black" stroke-width="0.6278" stroke-miterlimit="10"/>
<path d="M4143.16 38.2063L4245.91 113.394" stroke="black" stroke-width="0.6278" stroke-miterlimit="10"/>
<path d="M4245.91 51.9937L4348.66 157.415" stroke="black" stroke-width="0.6278" stroke-miterlimit="10"/>
<path d="M4348.66 77.0137L4451.42 227.297" stroke="black" stroke-width="0.6278" stroke-miterlimit="10"/>
<path d="M4451.42 115.972L4554.17 330.168" stroke="black" stroke-width="0.6278" stroke-miterlimit="10"/>
<path d="M4554.17 169.781L4656.92 477.805" stroke="black" stroke-width="0.6278" stroke-miterlimit="10"/>
<path d="M4656.92 242.656L4730.65 637.045" stroke="black" stroke-width="0.6278" stroke-miterlimit="10"/>
<path d="M3347.29 314.666L3376.86 257.318L3437.51 248.485L3463.56 197.473L3526.65 193.617L3561.01 140.671H3629.41L3672.84 87.378L3730.29 98.1767L3782.53 47.1152L3834.9 66.791L3880.7 21.3458L3940.16 44.7161L3990.41 4.62697L4040.41 36.1181L4091.78 1.26709L4143.16 38.2072L4204.37 10.5222L4245.91 51.9938L4306.32 30.9233L4348.66 77.0131L4412.18 65.328L4451.42 115.974L4523.04 117.654L4554.17 169.782L4624.66 183.135L4656.92 242.658L4706.62 252.44L4733.53 313.042" stroke="black" stroke-width="0.6278" stroke-miterlimit="10"/>
<path d="M4733.53 280.602L4692.34 273.002L4666.97 216.609L4605.54 204.056L4571.16 146.325L4508.14 143.622L4463.78 87.4586L4400.04 94.7176L4358.57 46.1357L4300.64 63.5241L4251.96 18.5624L4194.54 43.2284L4143.16 3.82726L4091.78 35.058L4040.41 1.26709L3990.91 38.6473L3935.55 11.3467L3882.34 55.0623L3827.01 34.2088L3782.53 81.1727L3726.4 66.2206L3680.78 118.131L3618.24 111.852L3574.97 167.401L3511.93 168.015L3475.28 224.166L3417.16 228.257L3388.78 282.524L3347.29 280.602" stroke="black" stroke-width="0.6278" stroke-miterlimit="10"/>
<path d="M3351.15 637.047L3396.93 585.93L3423.9 508.913L3484.28 456.277L3526.65 370.556L3597.64 328.756L3629.4 266.053L3688.37 252.192L3732.15 188.205H3791.87L3834.9 133.914L3891.75 147.459L3936.09 101.413L3989.03 125.824L4040.41 87.3779L4089.76 120.822L4143.16 90.9424L4183.02 131.366L4245.91 113.395L4282.36 160.409L4348.66 157.415L4383.11 211.768L4451.42 227.296L4481.53 287.749L4553.41 328.614L4581.47 398.489L4656.33 476.045L4675.87 548.041L4730.65 637.047" stroke="black" stroke-width="0.6278" stroke-miterlimit="10"/>
<path d="M4717.47 637.047L4695.02 552.393L4635.86 477.806L4599.3 388.689L4536.21 343.46L4496.16 267.541L4434.82 249.979L4396.37 186.339H4342.55L4294.08 131.118L4235.79 144.341L4186.96 98.0899L4139.41 124.554L4088.71 87.3779L4038.94 121.212L3984.63 92.3744L3937.66 135.117L3883.44 116.048L3841.04 165.697L3782.53 158.977L3741.79 216.25L3678.29 225.641L3643.7 287.322L3578.12 313.934L3540.11 388.583L3472.54 437.822L3433.44 527.64L3382.63 576.705L3368.31 637.047" stroke="black" stroke-width="0.6278" stroke-miterlimit="10"/>
<path fill-rule="evenodd" clip-rule="evenodd" d="M3357.73 637.047L3346.7 231.134H3257.16L3246.14 637.047H3357.73ZM3312.46 371.293V347.631C3312.46 338.717 3307.74 331.495 3301.93 331.495C3296.12 331.495 3291.4 338.717 3291.4 347.631V371.293H3312.46ZM3285.99 247.2H3317.88V263.491H3285.99V247.2Z" fill="black"/>
<path d="M3342.41 204.054H3261.46V231.132H3342.41V204.054Z" fill="black"/>
<path d="M3337.91 197.472H3265.95V204.055H3337.91V197.472Z" fill="black"/>
<path fill-rule="evenodd" clip-rule="evenodd" d="M4826.15 637.048L4815.12 231.135H4725.58L4714.56 637.048H4826.15ZM4780.88 371.294V347.632C4780.88 338.718 4776.16 331.496 4770.35 331.496C4764.53 331.496 4759.82 338.718 4759.82 347.632V371.294H4780.88ZM4754.4 247.201H4786.29V263.492H4754.4V247.201Z" fill="black"/>
<path d="M4810.82 204.056H4729.88V231.133H4810.82V204.056Z" fill="black"/>
<path d="M4806.33 197.473H4734.37V204.056H4806.33V197.473Z" fill="black"/>
<path d="M5079.34 360.235H3047.94V373.117H5079.34V360.235Z" fill="black" stroke="black" stroke-width="0.6278" stroke-miterlimit="10"/>
<path d="M5079.34 364.518H3047.94V368.827H5079.34V364.518Z" fill="black" stroke="black" stroke-width="0.6278" stroke-miterlimit="10"/>
<path fill-rule="evenodd" clip-rule="evenodd" d="M3284.48 637.049L3272.65 193.848H3184.71L3172.89 637.049H3284.48ZM3239.02 334.007V310.352C3239.02 301.437 3234.39 294.209 3228.68 294.209C3222.97 294.209 3218.34 301.431 3218.34 310.352V334.007H3239.02ZM3213.02 209.914H3244.34V226.205H3213.02V209.914Z" fill="black"/>
<path d="M3272.65 193.848L3272.81 193.844L3272.81 193.691H3272.65V193.848ZM3284.48 637.049V637.206H3284.64L3284.63 637.045L3284.48 637.049ZM3184.71 193.848V193.691H3184.56L3184.55 193.844L3184.71 193.848ZM3172.89 637.049L3172.73 637.045L3172.72 637.206H3172.89V637.049ZM3239.02 334.007V334.164H3239.18V334.007H3239.02ZM3218.34 334.007H3218.18V334.164H3218.34V334.007ZM3244.34 209.914H3244.5V209.757H3244.34V209.914ZM3213.02 209.914V209.757H3212.86V209.914H3213.02ZM3244.34 226.205V226.362H3244.5V226.205H3244.34ZM3213.02 226.205H3212.86V226.362H3213.02V226.205ZM3272.5 193.853L3284.32 637.053L3284.63 637.045L3272.81 193.844L3272.5 193.853ZM3184.71 194.005H3272.65V193.691H3184.71V194.005ZM3173.04 637.053L3184.87 193.853L3184.55 193.844L3172.73 637.045L3173.04 637.053ZM3284.48 636.892H3172.89V637.206H3284.48V636.892ZM3238.86 310.352V334.007H3239.18V310.352H3238.86ZM3228.68 294.366C3231.46 294.366 3234 296.128 3235.86 299.022C3237.71 301.915 3238.86 305.92 3238.86 310.352H3239.18C3239.18 305.869 3238.01 301.803 3236.12 298.853C3234.23 295.904 3231.6 294.052 3228.68 294.052V294.366ZM3218.49 310.352C3218.49 305.917 3219.65 301.912 3221.5 299.02C3223.35 296.127 3225.89 294.366 3228.68 294.366V294.052C3225.75 294.052 3223.12 295.903 3221.23 298.851C3219.34 301.8 3218.18 305.866 3218.18 310.352H3218.49ZM3218.49 334.007V310.352H3218.18V334.007H3218.49ZM3239.02 333.85H3218.34V334.164H3239.02V333.85ZM3244.34 209.757H3213.02V210.071H3244.34V209.757ZM3244.5 226.205V209.914H3244.19V226.205H3244.5ZM3213.02 226.362H3244.34V226.048H3213.02V226.362ZM3212.86 209.914V226.205H3213.18V209.914H3212.86Z" fill="black"/>
<path d="M3268.44 166.77H3188.93V193.848H3268.44V166.77Z" fill="black"/>
<path d="M3264.02 160.187H3193.34V166.764H3264.02V160.187Z" fill="black"/>
<path fill-rule="evenodd" clip-rule="evenodd" d="M4899.83 637.049L4888.01 193.849H4800.06L4788.24 637.049H4899.83ZM4854.38 334.008V310.353C4854.38 301.438 4849.75 294.21 4844.04 294.21C4838.33 294.21 4833.7 301.432 4833.7 310.353V334.008H4854.38ZM4828.38 209.915H4859.7V226.206H4828.38V209.915Z" fill="black"/>
<path d="M4888.01 193.849L4888.16 193.845L4888.16 193.692H4888.01V193.849ZM4899.83 637.049V637.206H4899.99L4899.99 637.045L4899.83 637.049ZM4800.06 193.849V193.692H4799.91L4799.91 193.845L4800.06 193.849ZM4788.24 637.049L4788.08 637.045L4788.08 637.206H4788.24V637.049ZM4854.38 334.008V334.165H4854.54V334.008H4854.38ZM4833.7 334.008H4833.54V334.165H4833.7V334.008ZM4859.7 209.915H4859.86V209.758H4859.7V209.915ZM4828.38 209.915V209.758H4828.22V209.915H4828.38ZM4859.7 226.206V226.363H4859.86V226.206H4859.7ZM4828.38 226.206H4828.22V226.363H4828.38V226.206ZM4887.85 193.853L4899.67 637.054L4899.99 637.045L4888.16 193.845L4887.85 193.853ZM4800.06 194.006H4888.01V193.692H4800.06V194.006ZM4788.4 637.054L4800.22 193.853L4799.91 193.845L4788.08 637.045L4788.4 637.054ZM4899.83 636.892H4788.24V637.206H4899.83V636.892ZM4854.22 310.353V334.008H4854.54V310.353H4854.22ZM4844.04 294.367C4846.82 294.367 4849.36 296.129 4851.22 299.023C4853.07 301.916 4854.22 305.921 4854.22 310.353H4854.54C4854.54 305.87 4853.37 301.804 4851.48 298.854C4849.59 295.906 4846.97 294.053 4844.04 294.053V294.367ZM4833.86 310.353C4833.86 305.918 4835.01 301.913 4836.86 299.021C4838.71 296.128 4841.25 294.367 4844.04 294.367V294.053C4841.11 294.053 4838.48 295.904 4836.59 298.852C4834.71 301.801 4833.54 305.867 4833.54 310.353H4833.86ZM4833.86 334.008V310.353H4833.54V334.008H4833.86ZM4854.38 333.851H4833.7V334.165H4854.38V333.851ZM4859.7 209.758H4828.38V210.072H4859.7V209.758ZM4859.86 226.206V209.915H4859.55V226.206H4859.86ZM4828.38 226.363H4859.7V226.049H4828.38V226.363ZM4828.22 209.915V226.206H4828.54V209.915H4828.22Z" fill="black"/>
<path d="M4883.79 166.771H4804.28V193.848H4883.79V166.771Z" fill="black"/>
<path d="M4879.38 160.188H4808.7V166.765H4879.38V160.188Z" fill="black"/>
<defs>
<filter id="filter0_f_691_7058" x="1476.52" y="567.654" width="1822.13" height="524.66" filterUnits="userSpaceOnUse" color-interpolation-filters="sRGB">
<feFlood flood-opacity="0" result="BackgroundImageFix"/>
<feBlend mode="normal" in="SourceGraphic" in2="BackgroundImageFix" result="shape"/>
<feGaussianBlur stdDeviation="25" result="effect1_foregroundBlur_691_7058"/>
</filter>
<filter id="filter1_f_691_7058" x="0.885742" y="557.053" width="1822.13" height="524.66" filterUnits="userSpaceOnUse" color-interpolation-filters="sRGB">
<feFlood flood-opacity="0" result="BackgroundImageFix"/>
<feBlend mode="normal" in="SourceGraphic" in2="BackgroundImageFix" result="shape"/>
<feGaussianBlur stdDeviation="25" result="effect1_foregroundBlur_691_7058"/>
</filter>
<filter id="filter2_f_691_7058" x="2996.68" y="563.413" width="2132.01" height="524.66" filterUnits="userSpaceOnUse" color-interpolation-filters="sRGB">
<feFlood flood-opacity="0" result="BackgroundImageFix"/>
<feBlend mode="normal" in="SourceGraphic" in2="BackgroundImageFix" result="shape"/>
<feGaussianBlur stdDeviation="25" result="effect1_foregroundBlur_691_7058"/>
</filter>
</defs>
</svg>
