<svg width="3491" height="839" viewBox="0 0 3491 839" fill="none" xmlns="http://www.w3.org/2000/svg">
<path d="M3490.97 499.216L3426.35 471.216V525.045H3420.68V487.871C3422.57 488.377 3424.46 488.866 3426.35 489.354V483.294C3424.46 482.805 3422.57 482.317 3420.68 481.81C3419.88 481.593 3419.06 481.382 3418.27 481.165C3406.65 478.036 3394.84 474.599 3382.84 470.86C3382.04 470.607 3381.24 470.354 3380.42 470.1C3375.97 468.701 3371.47 467.224 3366.96 465.747V446.391H3370.85V442.2H3365.23C3365.24 441.621 3365.41 430.224 3356.81 421.831C3350.51 415.698 3341.24 412.87 3329.24 413.401C3329.19 413.34 3329.15 413.28 3329.1 413.226C3328.73 412.828 3328.21 412.575 3327.62 412.575C3327.07 412.575 3326.57 412.798 3326.21 413.166C3325.85 413.527 3325.63 414.028 3325.63 414.583V416.615H3322.65C3321.57 416.615 3320.6 417.049 3319.9 417.76C3319.19 418.466 3318.76 419.443 3318.76 420.522V422.476H3336.49V420.522C3336.49 419.19 3335.82 418.014 3334.81 417.308C3334.18 416.874 3333.42 416.615 3332.6 416.615H3329.62V415.125C3340.98 414.679 3349.71 417.344 3355.6 423.079C3363.71 430.984 3363.51 442.073 3363.5 442.182L3364.36 442.206H3357.88V446.397H3361.77V464.052C3356.21 462.195 3350.62 460.284 3344.99 458.312C3344.17 458.04 3343.37 457.745 3342.56 457.449C3330.86 453.325 3319.03 448.983 3307.14 444.431C3306.33 444.117 3305.53 443.804 3304.71 443.49C3292.98 438.974 3281.15 434.264 3269.28 429.374C3268.48 429.042 3267.68 428.711 3266.86 428.379C3255.09 423.513 3243.28 418.484 3231.44 413.322C3230.64 412.973 3229.84 412.617 3229.02 412.249C3217.21 407.087 3205.4 401.787 3193.59 396.372C3192.77 395.998 3191.97 395.631 3191.17 395.257C3179.32 389.824 3167.52 384.246 3155.74 378.596C3154.94 378.222 3154.13 377.836 3153.33 377.444C3141.46 371.752 3129.63 365.969 3117.9 360.12C3117.08 359.728 3116.28 359.318 3115.48 358.908C3103.58 352.981 3091.77 346.999 3080.05 340.957C3079.25 340.547 3078.45 340.137 3077.64 339.727C3065.71 333.57 3053.88 327.39 3042.21 321.191C3041.41 320.763 3040.59 320.329 3039.79 319.919C3027.81 313.545 3015.98 307.171 3004.36 300.834C3003.54 300.382 3002.73 299.935 3001.93 299.501C2989.88 292.91 2978.06 286.38 2966.52 279.91C2965.7 279.458 2964.88 279.012 2964.08 278.559C2951.96 271.757 2940.13 265.046 2928.65 258.479C2927.85 258.009 2927.04 257.539 2926.24 257.093C2924.42 256.037 2922.61 255 2920.8 253.963C2910.65 248.114 2900.64 242.313 2890.81 236.543C2889.99 236.072 2889.19 235.584 2888.39 235.132C2876.31 228.034 2864.5 221.034 2852.96 214.135C2852.14 213.647 2851.34 213.158 2850.54 212.688C2838.39 205.392 2826.58 198.24 2815.11 191.258C2814.3 190.769 2813.5 190.281 2812.7 189.792C2800.44 182.285 2788.61 174.989 2777.27 167.952C2776.47 167.445 2775.65 166.933 2774.85 166.444C2762.4 158.684 2750.57 151.231 2739.42 144.176C2738.61 143.669 2737.81 143.157 2737.01 142.65C2724.24 134.558 2712.4 126.948 2701.58 119.948C2700.76 119.441 2699.96 118.911 2699.16 118.386C2685.6 109.606 2673.71 101.828 2663.73 95.2369C2662.92 94.7063 2662.12 94.1637 2661.32 93.633C2655.28 89.6472 2649.98 86.1258 2645.51 83.1349V80.5662H2658.67V67.2942H2650.87V9.77455H2657.04V0H2579.42V9.77455H2585.59V67.2942H2577.79V80.5662H2590.95V83.1349C2586.49 86.1258 2581.19 89.6472 2575.14 93.633C2574.34 94.1576 2573.55 94.7063 2572.73 95.2369C2562.75 101.828 2550.86 109.606 2537.3 118.386C2536.5 118.911 2535.7 119.441 2534.88 119.948C2524.06 126.948 2512.22 134.552 2499.45 142.65C2498.65 143.157 2497.85 143.669 2497.04 144.176C2485.89 151.237 2474.06 158.684 2461.61 166.444C2460.81 166.933 2459.99 167.439 2459.19 167.952C2447.85 174.989 2436.02 182.285 2423.76 189.792C2422.96 190.281 2422.16 190.769 2421.35 191.258C2409.88 198.24 2398.07 205.392 2385.92 212.688C2385.12 213.158 2384.32 213.647 2383.5 214.135C2371.96 221.04 2360.15 228.034 2348.07 235.132C2347.27 235.584 2346.47 236.072 2345.65 236.543C2335.82 242.313 2325.81 248.12 2315.66 253.963C2313.85 255 2312.04 256.037 2310.22 257.093C2309.43 257.545 2308.61 258.009 2307.81 258.479C2296.33 265.052 2284.5 271.757 2272.38 278.559C2271.58 279.012 2270.76 279.458 2269.94 279.91C2258.41 286.38 2246.58 292.91 2234.53 299.501C2233.73 299.929 2232.92 300.382 2232.1 300.834C2220.48 307.171 2208.65 313.545 2196.67 319.919C2195.87 320.329 2195.05 320.757 2194.25 321.191C2182.58 327.39 2170.75 333.564 2158.82 339.727C2158.01 340.137 2157.21 340.547 2156.41 340.957C2144.69 346.999 2132.88 352.981 2120.98 358.908C2120.18 359.318 2119.38 359.728 2118.56 360.12C2106.83 365.969 2095 371.752 2083.13 377.444C2082.33 377.836 2081.52 378.228 2080.72 378.596C2068.94 384.246 2057.13 389.818 2045.29 395.257C2044.49 395.631 2043.69 395.998 2042.87 396.372C2031.06 401.787 2019.25 407.087 2007.44 412.249C2006.62 412.617 2005.82 412.973 2005.03 413.322C1993.17 418.484 1981.36 423.507 1969.6 428.379C1968.78 428.711 1967.98 429.042 1967.18 429.374C1955.31 434.264 1943.48 438.974 1931.75 443.49C1930.93 443.804 1930.13 444.117 1929.32 444.431C1917.43 448.983 1905.6 453.325 1893.9 457.449C1893.09 457.745 1892.29 458.034 1891.47 458.312C1885.84 460.284 1880.26 462.189 1874.69 464.052V446.397H1878.58V442.206H1872.1L1872.96 442.182C1872.96 442.073 1872.76 430.984 1880.86 423.079C1886.75 417.344 1895.48 414.673 1906.83 415.125V416.615H1903.86C1903.03 416.615 1902.27 416.868 1901.65 417.308C1900.63 418.014 1899.97 419.19 1899.97 420.522V422.476H1917.7V420.522C1917.7 419.443 1917.27 418.466 1916.56 417.76C1915.85 417.055 1914.88 416.615 1913.8 416.615H1910.83V414.583C1910.83 414.028 1910.61 413.527 1910.25 413.166C1909.89 412.804 1909.38 412.575 1908.83 412.575C1908.25 412.575 1907.72 412.828 1907.36 413.226C1907.31 413.28 1907.26 413.347 1907.22 413.401C1895.21 412.87 1885.94 415.698 1879.65 421.831C1871.04 430.224 1871.2 441.621 1871.22 442.2H1865.6V446.391H1869.49V465.747C1864.99 467.224 1860.49 468.701 1856.03 470.1C1855.22 470.354 1854.42 470.607 1853.62 470.86C1841.62 474.593 1829.81 478.036 1818.19 481.165C1817.39 481.382 1816.57 481.593 1815.77 481.81C1813.88 482.317 1811.99 482.805 1810.1 483.294V489.354C1811.99 488.866 1813.88 488.377 1815.77 487.871V525.045H1810.09V471.216L1745.31 499.291L1680.87 471.367V525.196H1675.2V488.021C1677.08 488.528 1678.98 489.016 1680.86 489.505V483.445C1678.98 482.956 1677.08 482.468 1675.2 481.961C1674.4 481.744 1673.58 481.533 1672.78 481.316C1661.16 478.186 1649.35 474.749 1637.35 471.011C1636.55 470.758 1635.75 470.504 1634.94 470.251C1630.48 468.852 1625.98 467.375 1621.48 465.897V446.541H1625.37V442.351H1619.75C1619.76 441.778 1619.93 430.375 1611.32 421.981C1605.03 415.849 1595.76 413.021 1583.75 413.552C1583.71 413.491 1583.67 413.431 1583.62 413.377C1583.25 412.973 1582.73 412.725 1582.14 412.725C1581.59 412.725 1581.09 412.948 1580.73 413.31C1580.37 413.672 1580.15 414.173 1580.15 414.727V416.76H1577.17C1576.1 416.76 1575.12 417.194 1574.42 417.905C1573.72 418.611 1573.28 419.587 1573.28 420.667V422.621H1591V420.667C1591 419.334 1590.33 418.158 1589.32 417.453C1588.69 417.019 1587.94 416.76 1587.11 416.76H1584.14V415.27C1595.49 414.818 1604.23 417.489 1610.11 423.224C1618.21 431.129 1618.02 442.212 1618.01 442.326L1618.88 442.351H1612.39V446.541H1616.29V464.197C1610.72 462.34 1605.12 460.428 1599.5 458.456C1598.68 458.185 1597.88 457.89 1597.07 457.594C1585.38 453.47 1573.54 449.128 1561.65 444.57C1560.84 444.256 1560.04 443.942 1559.22 443.629C1547.49 439.112 1535.66 434.403 1523.79 429.513C1522.99 429.181 1522.19 428.849 1521.37 428.518C1509.6 423.652 1497.79 418.623 1485.94 413.461C1485.15 413.111 1484.35 412.756 1483.53 412.388C1471.72 407.226 1459.91 401.926 1448.1 396.511C1447.28 396.137 1446.48 395.769 1445.68 395.395C1433.84 389.962 1422.02 384.385 1410.25 378.735C1409.45 378.361 1408.64 377.975 1407.84 377.583C1395.97 371.891 1384.14 366.108 1372.41 360.259C1371.59 359.867 1370.79 359.457 1369.99 359.047C1358.09 353.119 1346.28 347.138 1334.56 341.096C1333.76 340.686 1332.96 340.276 1332.15 339.866C1320.22 333.709 1308.39 327.528 1296.72 321.33C1295.92 320.901 1295.1 320.467 1294.3 320.057C1282.32 313.684 1270.49 307.31 1258.87 300.973C1258.05 300.52 1257.24 300.074 1256.44 299.646C1244.39 293.055 1232.56 286.525 1221.02 280.055C1220.21 279.602 1219.39 279.156 1218.59 278.704C1206.47 271.902 1194.64 265.191 1183.16 258.624C1182.36 258.154 1181.54 257.684 1180.75 257.237C1178.93 256.182 1177.12 255.145 1175.31 254.108C1165.16 248.259 1155.15 242.452 1145.32 236.687C1144.5 236.217 1143.7 235.729 1142.9 235.282C1130.82 228.185 1119.01 221.184 1107.47 214.28C1106.65 213.792 1105.85 213.303 1105.05 212.833C1092.9 205.543 1081.09 198.385 1069.62 191.402C1068.81 190.914 1068.01 190.426 1067.21 189.937C1054.95 182.43 1043.12 175.134 1031.78 168.097C1030.98 167.59 1030.16 167.078 1029.36 166.589C1016.91 158.829 1005.08 151.376 993.933 144.321C993.116 143.814 992.317 143.302 991.517 142.795C978.752 134.703 966.9 127.093 956.088 120.092C955.27 119.586 954.471 119.055 953.672 118.531C940.107 109.751 928.219 101.972 918.242 95.3818C917.425 94.8511 916.625 94.3083 915.826 93.7777C909.786 89.7919 904.485 86.2704 900.019 83.2795V80.7108H913.175V67.439H905.38V9.91937H911.552V0.144823H833.926V9.91937H840.099V67.439H832.303V80.7108H845.46V83.2795C840.994 86.2704 835.699 89.7919 829.653 93.7777C828.854 94.3083 828.054 94.8511 827.237 95.3818C817.26 101.972 805.372 109.751 791.807 118.531C791.008 119.061 790.209 119.586 789.391 120.092C778.579 127.093 766.727 134.697 753.962 142.795C753.163 143.302 752.363 143.814 751.546 144.321C740.397 151.382 728.569 158.829 716.116 166.589C715.317 167.078 714.499 167.584 713.7 168.097C702.359 175.134 690.531 182.43 678.27 189.937C677.471 190.426 676.672 190.914 675.854 191.402C664.393 198.385 652.583 205.537 640.425 212.833C639.625 213.303 638.826 213.792 638.009 214.28C626.469 221.184 614.659 228.179 602.579 235.282C601.78 235.735 600.981 236.223 600.163 236.687C590.319 242.458 580.324 248.265 570.173 254.108C568.358 255.145 566.548 256.182 564.733 257.237C563.934 257.69 563.117 258.154 562.318 258.624C550.838 265.197 539.01 271.902 526.888 278.704C526.088 279.156 525.271 279.602 524.454 280.055C512.914 286.525 501.086 293.055 489.042 299.646C488.243 300.074 487.426 300.526 486.608 300.973C474.997 307.31 463.163 313.684 451.179 320.057C450.379 320.467 449.562 320.895 448.763 321.33C437.085 327.528 425.257 333.709 413.333 339.866C412.516 340.276 411.716 340.686 410.917 341.096C399.203 347.138 387.393 353.119 375.487 359.047C374.688 359.457 373.889 359.867 373.072 360.259C361.34 366.108 349.512 371.891 337.642 377.583C336.842 377.975 336.025 378.367 335.226 378.735C323.452 384.385 311.642 389.956 299.796 395.395C298.997 395.769 298.197 396.137 297.38 396.511C285.57 401.926 273.76 407.226 261.951 412.388C261.133 412.762 260.334 413.111 259.534 413.461C247.688 418.623 235.879 423.646 224.105 428.518C223.288 428.849 222.488 429.181 221.689 429.513C209.819 434.403 197.991 439.112 186.259 443.629C185.442 443.942 184.642 444.256 183.825 444.57C171.937 449.122 160.109 453.464 148.414 457.594C147.596 457.89 146.797 458.179 145.979 458.456C140.354 460.428 134.765 462.334 129.199 464.197V446.541H133.088V442.351H126.603L127.468 442.326C127.468 442.218 127.27 431.129 135.372 423.224C141.255 417.489 149.994 414.818 161.347 415.27V416.76H158.372C157.549 416.76 156.786 417.013 156.161 417.453C155.145 418.158 154.484 419.334 154.484 420.667V422.621H172.214V420.667C172.214 419.587 171.775 418.611 171.072 417.905C170.368 417.2 169.395 416.76 168.319 416.76H165.344V414.727C165.344 414.173 165.122 413.672 164.755 413.31C164.395 412.948 163.896 412.725 163.343 412.725C162.76 412.725 162.231 412.979 161.864 413.377C161.816 413.431 161.774 413.497 161.732 413.552C149.73 413.021 140.456 415.849 134.164 421.981C125.557 430.375 125.719 441.778 125.731 442.351H120.112V446.541H124.006V465.897C119.505 467.375 115.003 468.852 110.55 470.251C109.732 470.504 108.933 470.758 108.134 471.011C96.1317 474.743 84.3217 478.186 72.7042 481.316C71.9048 481.533 71.0876 481.744 70.2882 481.961C68.4011 482.468 66.5081 482.956 64.6149 483.445V489.505C66.5081 489.016 68.395 488.528 70.2882 488.021V525.196H64.6149V471.367L0.00103234 499.367L0.000218773 839H51.6028V819.927H31.9136V571.313H51.6028V557.444H64.6149H845.466V758.139H810.943V767.913H820.77V825.427H808.359V838.699H937.144V825.427H924.733V767.913H934.559V758.139H900.037V557.444H1680.89H1693.9V571.313H1713.59V819.927H1693.9V839H1797.11V819.927H1777.42V571.313H1797.11V557.444H1810.12V557.293H2590.96V757.988H2556.44V767.762H2566.27V825.276H2553.86V838.548H2682.64V825.276H2670.23V767.762H2680.06V757.988H2645.53V557.293H3426.39H3439.4V571.162H3459.09V819.777H3439.4V838.849H3491L3490.97 499.216ZM2601.81 44.1633C2601.81 35.0702 2609.16 27.7017 2618.22 27.7017C2622.74 27.7017 2626.86 29.5408 2629.81 32.5317C2632.79 35.5044 2634.63 39.6288 2634.63 44.1633V67.2942H2601.8L2601.81 44.1633ZM856.32 44.314C856.32 35.2209 863.664 27.8524 872.727 27.8524C877.247 27.8524 881.358 29.6915 884.327 32.6824C887.308 35.6551 889.141 39.7795 889.141 44.314V67.4449H856.326V44.314H856.32ZM1680.86 527.361V537.63H1675.19V527.361H1680.86ZM970.914 417.435C970.289 417.001 969.526 416.741 968.703 416.741H965.728V415.252C976.967 414.806 985.627 417.441 991.511 423.061V525.184H956.081V422.59H972.597V420.637C972.591 419.316 971.93 418.14 970.914 417.435ZM997.876 446.535V525.196H993.927V425.786C999.721 433.324 999.613 442.218 999.607 442.314L1000.47 442.339H993.987V446.529H997.876V446.535ZM1204.01 446.535V525.196H1183.16V416.168C1189.11 417.326 1194.11 419.587 1197.84 423.217C1205.94 431.123 1205.75 442.206 1205.74 442.32L1206.61 442.344H1200.12V446.535H1204.01ZM1383.18 417.435C1382.56 417.001 1381.8 416.741 1380.97 416.741H1378V415.252C1389.34 414.8 1398.09 417.471 1403.97 423.206C1405.59 424.785 1406.8 426.504 1407.83 428.222V442.326H1406.25V446.517H1407.83V525.178H1372.4V422.584H1384.86V420.631C1384.86 419.316 1384.2 418.14 1383.18 417.435ZM978.686 537.63V527.361H991.505V537.63H978.686ZM1407.83 537.63H1406.25H1395.48V527.361H1407.82V537.63H1407.83ZM1671.04 537.63H1638.62V527.361H1671.04V537.63ZM1634.92 537.63H1625.35H1621.47V527.361H1634.92V537.63ZM1616.28 537.63H1612.38H1603.88V527.361H1616.27L1616.28 537.63ZM1601.58 537.63H1599.5V527.361H1601.58V537.63ZM1597.06 537.63H1569.15V527.361H1597.06V537.63ZM1566.85 537.63H1561.65V527.361H1566.85V537.63ZM1559.21 537.63H1534.42V527.361H1559.21V537.63ZM1532.11 537.63H1523.79V527.361H1532.11V537.63ZM1521.37 537.63H1499.68V527.361H1521.37V537.63ZM1497.38 537.63H1485.94V527.361H1497.38V537.63ZM1483.52 537.63H1464.95V527.361H1483.52V537.63ZM1462.64 537.63H1448.09V527.361H1462.64V537.63ZM1445.68 537.63H1430.22V527.361H1445.68V537.63ZM1427.91 537.63H1419.23H1415.33V527.361H1427.91V537.63ZM1410.25 442.339V433.39C1411.91 438.256 1411.88 442.248 1411.88 442.314L1412.74 442.339H1410.25ZM1393.18 527.361V537.63H1372.4V527.361H1393.18ZM1369.99 537.63H1360.75V527.361H1369.99V537.63ZM1358.45 537.63H1334.56V527.361H1358.45V537.63ZM1332.14 537.63H1326.02V527.361H1332.14V537.63ZM1323.71 537.63H1296.71V527.361H1323.71V537.63ZM1294.29 537.63H1291.29V527.361H1294.29V537.63ZM1288.98 537.63H1258.86V527.361H1288.98V537.63ZM1254.25 537.63H1221.82V527.361H1254.25V537.63ZM1218.58 537.63H1213.09H1209.2V527.361H1218.58V537.63ZM1204.01 537.63H1200.12H1187.09V527.361H1204.01V537.63ZM1184.78 527.361V537.63H1183.16V527.361H1184.78ZM1180.74 537.63H1152.35V527.361H1180.74V537.63ZM1150.05 537.63H1145.3V527.361H1150.05V537.63ZM1142.89 537.63H1117.61V527.361H1142.89V537.63ZM1115.31 537.63H1107.46V527.361H1115.31V537.63ZM1105.05 537.63H1082.89V527.361H1105.05V537.63ZM1080.58 537.63H1069.62V527.361H1080.58V537.63ZM1067.2 537.63H1048.16V527.361H1067.2V537.63ZM1045.85 537.63H1031.77V527.361H1045.85V537.63ZM1029.36 537.63H1013.42V527.361H1029.36V537.63ZM1011.11 537.63H1006.95H1003.06V527.361H1011.11V537.63ZM997.876 537.63H993.987H993.927V527.361H997.876V537.63ZM976.378 527.361V537.63H956.076V527.361H976.378ZM953.66 537.63H943.953V527.361H953.66V537.63ZM941.645 537.63H918.23V527.361H941.645V537.63ZM915.82 537.63H909.221V527.361H915.82V537.63ZM906.913 537.63H900.013V527.361H906.913V537.63ZM1672.77 487.394V525.196H1637.34V477.131C1649.33 480.864 1661.16 484.283 1672.77 487.394ZM1634.92 476.384V525.196H1621.47V472.06C1625.97 473.531 1630.46 474.997 1634.92 476.384ZM1616.28 470.372V525.19H1599.5V464.667C1605.12 466.633 1610.71 468.526 1616.28 470.372ZM1597.06 463.811V525.196H1561.65V450.853C1573.56 455.381 1585.37 459.723 1597.06 463.811ZM1559.21 449.912V525.196H1523.78V435.856C1535.65 440.722 1547.48 445.414 1559.21 449.912ZM1521.37 434.873V525.196H1485.94V419.859C1497.78 425.002 1509.6 430.025 1521.37 434.873ZM1483.52 418.804V525.196H1448.09V402.969C1459.9 408.36 1471.73 413.66 1483.52 418.804ZM1445.68 401.872V525.196H1415.33V446.535H1419.23V442.344H1413.61C1413.62 441.916 1413.69 435.567 1410.25 428.892V385.259C1422.02 390.879 1433.85 396.433 1445.68 401.872ZM1407.83 384.095V425.027C1407.05 423.983 1406.18 422.952 1405.17 421.969C1398.88 415.837 1389.61 413.009 1377.61 413.54C1377.56 413.479 1377.52 413.419 1377.47 413.365C1377.11 412.961 1376.58 412.713 1376 412.713C1375.44 412.713 1374.94 412.936 1374.58 413.298C1374.22 413.66 1373.99 414.16 1373.99 414.715V416.747H1372.4V366.813C1384.13 372.638 1395.96 378.427 1407.83 384.095ZM1369.99 365.619V416.958C1369.34 417.145 1368.74 417.429 1368.27 417.893C1367.57 418.599 1367.14 419.575 1367.14 420.655V422.609H1369.99V525.202H1334.56V347.717C1346.25 353.71 1358.08 359.698 1369.99 365.619ZM1332.14 346.456V525.19H1296.71V327.956C1308.38 334.143 1320.19 340.318 1332.14 346.456ZM1294.29 326.69V525.196H1258.86V307.648C1270.48 313.979 1282.31 320.335 1294.29 326.69ZM1256.43 306.315V525.19H1221.02V286.778C1232.58 293.236 1244.39 299.748 1256.43 306.315ZM1218.58 285.415V525.196H1209.2V446.535H1213.09V442.344H1207.47C1207.49 441.772 1207.65 430.369 1199.05 421.975C1195 418.032 1189.6 415.608 1183.16 414.414V265.378C1194.63 271.944 1206.46 278.632 1218.58 285.415ZM1172.36 259.179C1175.12 260.783 1177.93 262.387 1180.74 263.991V413.931C1177.85 413.564 1174.79 413.401 1171.48 413.545C1171.43 413.485 1171.39 413.425 1171.34 413.371C1170.97 412.967 1170.45 412.719 1169.87 412.719C1169.31 412.719 1168.82 412.943 1168.45 413.304C1168.09 413.666 1167.87 414.167 1167.87 414.721V416.753H1164.9C1163.82 416.753 1162.85 417.188 1162.14 417.899C1161.44 418.605 1161 419.582 1161 420.661V422.614H1178.73V420.661C1178.73 419.328 1178.06 418.152 1177.06 417.447C1176.43 417.013 1175.67 416.753 1174.84 416.753H1171.87V415.264C1175.05 415.137 1177.97 415.318 1180.75 415.68V525.196H1145.32V243.477C1154.19 248.675 1163.22 253.915 1172.36 259.179ZM1142.89 242.048V525.196H1107.46V221.112C1119 227.992 1130.83 234.993 1142.89 242.048ZM1105.05 219.659V525.19H1069.62V198.264C1081.07 205.253 1092.91 212.387 1105.05 219.659ZM1067.2 196.805V525.196H1031.77V174.965C1043.11 182.044 1054.94 189.316 1067.2 196.805ZM1029.36 173.475V525.19H1003.07V446.529H1006.96V442.339H1001.34C1001.35 441.79 1001.42 431.388 993.927 423.139V151.243C1005.11 158.322 1016.94 165.757 1029.36 173.475ZM991.511 149.724V420.914C985.267 415.596 976.546 413.045 965.343 413.54C965.301 413.479 965.259 413.419 965.211 413.365C964.844 412.961 964.321 412.713 963.732 412.713C963.179 412.713 962.681 412.936 962.32 413.298C961.959 413.66 961.737 414.16 961.737 414.715V416.747H958.762C957.722 416.747 956.785 417.169 956.081 417.839V127.057C966.936 134.082 978.782 141.668 991.511 149.724ZM953.66 125.519V525.196H918.23V102.407C928.327 109.051 940.215 116.836 953.66 125.519ZM915.82 100.821V525.196H900.013V90.3225C904.593 93.3737 909.876 96.8891 915.82 100.821ZM845.448 90.3225V525.196H829.641V100.821C835.585 96.8891 840.868 93.3737 845.448 90.3225ZM373.053 422.603V525.196H337.624V446.535H339.198V442.344H337.624V428.24C338.652 426.516 339.859 424.803 341.482 423.224C347.366 417.489 356.105 414.818 367.458 415.27V416.76H364.483C363.66 416.76 362.902 417.013 362.271 417.453C361.256 418.158 360.594 419.334 360.594 420.667V422.621H373.053V422.603ZM538.854 442.339L539.719 442.314C539.719 442.206 539.521 431.117 547.623 423.211C551.349 419.575 556.349 417.32 562.305 416.163V525.19H541.451V446.529H545.345V442.339H538.854ZM744.989 442.339L745.854 442.314C745.854 442.212 745.74 433.318 751.534 425.786V525.196H747.585V446.535H751.474V442.344L744.989 442.339ZM789.379 422.603V525.196H753.95V423.073C759.834 417.453 768.488 414.818 779.727 415.264V416.753H776.752C775.929 416.753 775.165 417.007 774.54 417.447C773.524 418.152 772.863 419.328 772.863 420.661V422.614H789.379V422.603ZM836.24 537.63H829.641V527.361H836.24V537.63ZM349.968 537.63H339.198H337.624V527.361H349.968V537.63ZM766.769 537.63H753.944V527.361H766.769V537.63ZM827.225 537.63H803.809V527.361H827.225V537.63ZM801.508 537.63H791.795V527.361H801.508V537.63ZM789.379 537.63H769.077V527.361H789.379V537.63ZM751.534 527.361V537.63H751.474H747.585V527.361H751.534ZM742.392 537.63H738.504H734.345V527.361H742.392V537.63ZM732.037 537.63H716.104V527.361H732.037V537.63ZM713.688 537.63H699.612V527.361H713.688V537.63ZM697.305 537.63H678.259V527.361H697.305V537.63ZM675.842 537.63H664.88V527.361H675.842V537.63ZM662.572 537.63H640.413V527.361H662.572V537.63ZM637.997 537.63H630.148V527.361H637.997V537.63ZM627.84 537.63H602.567V527.361H627.84V537.63ZM600.151 537.63H595.409V527.361H600.151V537.63ZM593.107 537.63H564.722V527.361H593.107V537.63ZM562.305 537.63H560.677V527.361H562.305V537.63ZM558.375 527.361V537.63H545.339H541.444V527.361H558.375ZM536.258 537.63H532.369H526.876V527.361H536.258V537.63ZM523.637 537.63H491.212V527.361H523.637V537.63ZM486.59 537.63H456.473V527.361H486.59V537.63ZM454.172 537.63H451.161V527.361H454.172V537.63ZM448.745 537.63H421.741V527.361H448.745V537.63ZM419.439 537.63H413.321V527.361H419.439V537.63ZM410.899 537.63H387.009V527.361H410.899V537.63ZM384.707 537.63H375.475V527.361H384.707V537.63ZM373.053 537.63H352.276V527.361H373.053V537.63ZM335.208 442.339H332.713L333.579 442.314C333.579 442.248 333.549 438.256 335.208 433.39V442.339ZM330.123 537.63H326.229H317.544V527.361H330.123V537.63ZM315.236 537.63H299.778V527.361H315.236V537.63ZM297.362 537.63H282.805V527.361H297.362V537.63ZM280.504 537.63H261.933V527.361H280.504V537.63ZM259.516 537.63H248.079V527.361H259.516V537.63ZM245.771 537.63H224.087V527.361H245.771V537.63ZM221.671 537.63H213.347V527.361H221.671V537.63ZM211.039 537.63H186.241V527.361H211.039V537.63ZM183.807 537.63H178.608V527.361H183.807V537.63ZM176.307 537.63H148.402V527.361H176.307V537.63ZM145.961 537.63H143.882V527.361H145.961V537.63ZM141.574 537.63H133.07H129.181V527.361H141.574V537.63ZM123.989 537.63H120.094H110.526V527.361H123.983L123.989 537.63ZM106.836 537.63H74.4051V527.361H106.836V537.63ZM838.542 537.63V527.361H845.441V537.63H838.542ZM827.225 102.407V525.196H791.795V125.519C805.24 116.836 817.128 109.051 827.225 102.407ZM789.379 127.063V417.845C788.682 417.176 787.745 416.753 786.705 416.753H783.73V414.721C783.73 414.167 783.507 413.666 783.147 413.304C782.786 412.943 782.287 412.719 781.734 412.719C781.151 412.719 780.623 412.973 780.256 413.371C780.208 413.425 780.166 413.491 780.118 413.545C768.909 413.051 760.194 415.602 753.95 420.92V149.73C766.673 141.668 778.525 134.082 789.379 127.063ZM751.534 151.249V423.145C744.051 431.394 744.111 441.79 744.123 442.344H738.504V446.535H742.392V525.196H716.104V173.482C728.521 165.757 740.349 158.322 751.534 151.249ZM713.688 174.965V525.196H678.259V196.805C690.513 189.316 702.347 182.044 713.688 174.965ZM675.842 198.271V525.196H640.413V219.665C652.553 212.387 664.381 205.253 675.842 198.271ZM637.997 221.106V525.19H602.567V242.042C614.63 234.993 626.457 227.992 637.997 221.106ZM573.1 259.179C582.241 253.921 591.262 248.681 600.151 243.477V525.196H564.722V415.68C567.486 415.318 570.413 415.137 573.599 415.264V416.753H570.624C569.8 416.753 569.037 417.007 568.412 417.447C567.396 418.152 566.735 419.328 566.735 420.661V422.614H584.465V420.661C584.465 419.582 584.026 418.605 583.323 417.899C582.62 417.194 581.646 416.753 580.57 416.753H577.601V414.721C577.601 414.167 577.379 413.666 577.012 413.304C576.652 412.943 576.153 412.719 575.6 412.719C575.017 412.719 574.488 412.973 574.121 413.371C574.073 413.425 574.031 413.491 573.989 413.545C570.678 413.401 567.618 413.57 564.728 413.931V263.991C567.528 262.381 570.329 260.777 573.1 259.179ZM562.305 265.372V414.408C555.869 415.608 550.459 418.026 546.421 421.969C537.814 430.363 537.977 441.766 537.989 442.339H532.369V446.529H536.258V525.19H526.876V285.409C538.998 278.632 550.826 271.944 562.305 265.372ZM524.436 286.784V525.196H489.024V306.321C501.075 299.749 512.879 293.236 524.436 286.784ZM486.59 307.648V525.196H451.161V326.69C463.151 320.335 474.979 313.979 486.59 307.648ZM448.745 327.963V525.196H413.315V346.462C425.263 340.318 437.073 334.143 448.745 327.963ZM410.899 347.711V525.196H375.469V422.603H378.324V420.649C378.324 419.569 377.891 418.592 377.182 417.887C376.719 417.423 376.119 417.139 375.469 416.952V365.614C387.381 359.698 399.209 353.71 410.899 347.711ZM373.053 366.813V416.747H371.454V414.715C371.454 414.16 371.232 413.66 370.872 413.298C370.511 412.936 370.012 412.713 369.459 412.713C368.876 412.713 368.347 412.967 367.981 413.365C367.933 413.419 367.891 413.485 367.849 413.54C355.846 413.009 346.573 415.837 340.28 421.969C339.27 422.952 338.405 423.983 337.624 425.027V384.095C349.494 378.427 361.321 372.638 373.053 366.813ZM335.208 385.253V428.886C331.764 435.567 331.842 441.916 331.854 442.339H326.235V446.529H330.129V525.19H299.784V401.866C311.612 396.433 323.44 390.879 335.208 385.253ZM297.362 402.963V525.19H261.933V418.798C273.724 413.66 285.552 408.36 297.362 402.963ZM259.516 419.859V525.196H224.087V434.873C235.861 430.025 247.67 425.002 259.516 419.859ZM221.671 435.85V525.19H186.241V449.906C197.973 445.414 209.801 440.722 221.671 435.85ZM183.807 450.847V525.19H148.396V463.805C160.091 459.723 171.901 455.381 183.807 450.847ZM145.961 464.673V525.196H129.181V470.378C134.747 468.527 140.336 466.633 145.961 464.673ZM123.989 472.06V525.196H110.532V476.384C114.991 474.997 119.487 473.531 123.989 472.06ZM72.6862 487.394C84.3037 484.283 96.1317 480.864 108.116 477.131V525.196H72.6862V487.394ZM64.5907 527.361H70.2644V537.63H64.5907V527.361ZM2645.5 527.216H2652.4V537.485H2645.5V527.216ZM2716.41 417.29C2715.77 416.856 2715.02 416.597 2714.19 416.597H2711.22V415.107C2722.46 414.661 2731.12 417.296 2737 422.916V525.039H2701.57V422.446H2718.08V420.492C2718.09 419.171 2717.42 417.99 2716.41 417.29ZM2743.37 446.385V525.045H2739.41V425.635C2745.21 433.173 2745.1 442.067 2745.1 442.164L2745.96 442.188H2739.48V446.379H2743.37V446.385ZM2949.51 446.385V525.045H2928.65V416.018C2934.61 417.175 2939.61 419.437 2943.33 423.067C2951.44 430.972 2951.24 442.061 2951.24 442.17L2952.1 442.194H2945.62V446.385H2949.51ZM3128.67 417.29C3128.05 416.856 3127.29 416.597 3126.46 416.597H3123.49V415.107C3134.84 414.661 3143.58 417.326 3149.46 423.061C3151.09 424.641 3152.3 426.359 3153.33 428.078V442.182H3151.75V446.372H3153.33V525.033H3117.9V422.44H3130.36V420.486C3130.36 419.171 3129.69 417.99 3128.67 417.29ZM2724.18 537.479V527.21H2737V537.479H2724.18ZM3153.33 537.479H3151.75H3140.98V527.21H3153.33V537.479ZM3416.54 537.479H3384.11V527.21H3416.54V537.479ZM3380.42 537.479H3370.85H3366.96V527.21H3380.42V537.479ZM3361.77 537.479H3357.88H3349.38V527.21H3361.77V537.479ZM3347.07 537.479H3344.98V527.21H3347.07V537.479ZM3342.56 537.479H3314.64V527.21H3342.56V537.479ZM3312.34 537.479H3307.14V527.21H3312.34V537.479ZM3304.71 537.479H3279.91V527.21H3304.71V537.479ZM3277.6 537.479H3269.28V527.21H3277.6V537.479ZM3266.86 537.479H3245.18V527.21H3266.86V537.479ZM3242.87 537.479H3231.43V527.21H3242.87V537.479ZM3229.01 537.479H3210.44V527.21H3229.01V537.479ZM3208.14 537.479H3193.58V527.21H3208.14V537.479ZM3191.17 537.479H3175.72V527.21H3191.17V537.479ZM3173.41 537.479H3164.72H3160.83V527.21H3173.41V537.479H3173.41ZM3155.74 442.188V433.239C3157.4 438.105 3157.37 442.097 3157.37 442.164L3158.23 442.188H3155.74ZM3138.68 527.216V537.485H3117.9V527.216H3138.68ZM3115.48 537.479H3106.25V527.21H3115.48V537.479ZM3103.94 537.479H3080.05V527.21H3103.94V537.479ZM3077.64 537.479H3071.51V527.21H3077.64V537.479ZM3069.2 537.479H3042.2V527.21H3069.2V537.479ZM3039.79 537.479H3036.78V527.21H3039.79V537.479ZM3034.47 537.479H3004.36V527.21H3034.47V537.479ZM2999.74 537.479H2967.32V527.21H2999.74V537.479ZM2964.08 537.479H2958.58H2954.69V527.21H2964.07L2964.08 537.479ZM2949.51 537.479H2945.61H2932.58V527.21H2949.5V537.479H2949.51ZM2930.27 527.216V537.485H2928.65V527.216H2930.27ZM2926.23 537.479H2897.84V527.21H2926.23V537.479ZM2895.54 537.479H2890.81V527.21H2895.54V537.479ZM2888.38 537.479H2863.11V527.21H2888.38V537.479ZM2860.81 537.479H2852.95V527.21H2860.81V537.479ZM2850.54 537.479H2828.38V527.21H2850.54V537.479ZM2826.07 537.479H2815.11V527.21H2826.07V537.479ZM2812.69 537.479H2793.65V527.21H2812.69V537.479ZM2791.34 537.479H2777.26V527.21H2791.34V537.479ZM2774.85 537.479H2758.92V527.21H2774.85V537.479ZM2756.61 537.479H2752.45H2748.55V527.21H2756.6L2756.61 537.479ZM2743.37 537.479H2739.48H2739.42V527.21H2743.37L2743.37 537.479ZM2721.87 527.216V537.485H2701.57V527.216H2721.87ZM2699.16 537.479H2689.45V527.21H2699.16V537.479ZM2687.14 537.479H2663.73V527.21H2687.14V537.479ZM2661.31 537.479H2654.71V527.21H2661.31V537.479ZM3418.27 487.243V525.045H3382.84V476.98C3394.82 480.713 3406.65 484.132 3418.27 487.243ZM3380.42 476.233V525.045H3366.96V471.909C3371.46 473.381 3375.96 474.846 3380.42 476.233ZM3361.77 470.227V525.045H3344.99V464.523C3350.62 466.482 3356.21 468.376 3361.77 470.227ZM3342.56 463.66V525.045H3307.14V450.702C3319.05 455.237 3330.86 459.578 3342.56 463.66ZM3304.71 449.761V525.045H3269.28V435.706C3281.14 440.572 3292.98 445.263 3304.71 449.761ZM3266.86 434.723V525.045H3231.44V419.708C3243.28 424.852 3255.09 429.875 3266.86 434.723ZM3229.01 418.653V525.045H3193.58V402.812C3205.4 408.209 3217.23 413.509 3229.01 418.653ZM3191.17 401.721V525.045H3160.83V446.385H3164.72V442.194H3159.1C3159.11 441.766 3159.18 435.416 3155.74 428.735V385.102C3167.51 390.728 3179.34 396.282 3191.17 401.721ZM3153.33 383.944V424.876C3152.55 423.832 3151.68 422.801 3150.67 421.819C3144.38 415.686 3135.11 412.858 3123.1 413.389C3123.06 413.328 3123.02 413.268 3122.97 413.214C3122.6 412.816 3122.08 412.563 3121.49 412.563C3120.94 412.563 3120.44 412.786 3120.08 413.153C3119.72 413.515 3119.49 414.016 3119.49 414.571V416.603H3117.9V366.669C3129.63 372.488 3141.46 378.276 3153.33 383.944ZM3115.48 365.469V416.808C3114.83 416.995 3114.23 417.278 3113.77 417.742C3113.07 418.448 3112.63 419.425 3112.63 420.504V422.458H3115.48V525.051H3080.05V347.566C3091.74 353.56 3103.57 359.547 3115.48 365.469ZM3077.64 346.306V525.039H3042.21V327.806C3053.88 333.992 3065.69 340.167 3077.64 346.306ZM3039.79 326.539V525.045H3004.36V307.497C3015.97 313.828 3027.8 320.184 3039.79 326.539ZM3001.92 306.164V525.039H2966.51V286.627C2978.07 293.085 2989.88 299.598 3001.92 306.164ZM2964.08 285.265V525.045H2954.69V446.385H2958.59V442.194H2952.97C2952.98 441.615 2953.14 430.218 2944.54 421.825C2940.49 417.881 2935.09 415.457 2928.65 414.263V265.227C2940.13 271.794 2951.95 278.481 2964.08 285.265ZM2917.85 259.028C2920.62 260.632 2923.42 262.236 2926.23 263.84V413.781C2923.34 413.419 2920.28 413.25 2916.97 413.395C2916.93 413.334 2916.88 413.274 2916.84 413.22C2916.47 412.822 2915.95 412.569 2915.36 412.569C2914.81 412.569 2914.31 412.792 2913.95 413.16C2913.59 413.521 2913.36 414.022 2913.36 414.577V416.609H2910.38C2909.31 416.609 2908.33 417.043 2907.63 417.754C2906.93 418.46 2906.49 419.437 2906.49 420.516V422.47H2924.22V420.516C2924.22 419.183 2923.55 418.008 2922.54 417.302C2921.91 416.868 2921.15 416.609 2920.33 416.609H2917.35V415.119C2920.54 414.993 2923.46 415.174 2926.23 415.535V525.051H2890.8V243.332C2899.69 248.524 2908.71 253.764 2917.85 259.028ZM2888.38 241.897V525.045H2852.95V220.961C2864.49 227.841 2876.32 234.842 2888.38 241.897ZM2850.54 219.508V525.039H2815.11V198.114C2826.57 205.102 2838.4 212.236 2850.54 219.508ZM2812.69 196.655V525.045H2777.26V174.814C2788.6 181.893 2800.43 189.165 2812.69 196.655ZM2774.85 173.325V525.039H2748.56V446.379H2752.45V442.188H2746.83C2746.85 441.639 2746.91 431.237 2739.42 422.988V151.092C2750.6 158.177 2762.43 165.606 2774.85 173.325ZM2737 149.573V420.763C2730.76 415.445 2722.04 412.894 2710.83 413.389C2710.79 413.328 2710.75 413.268 2710.7 413.214C2710.34 412.816 2709.81 412.563 2709.23 412.563C2708.68 412.563 2708.18 412.786 2707.82 413.153C2707.46 413.515 2707.23 414.016 2707.23 414.571V416.603H2704.26C2703.21 416.603 2702.28 417.025 2701.58 417.694V126.912C2712.43 133.931 2724.28 141.517 2737 149.573ZM2699.16 125.369V525.045H2663.73V102.256C2673.82 108.901 2685.71 116.685 2699.16 125.369ZM2661.31 100.67V525.045H2645.5V90.1718C2650.08 93.223 2655.37 96.7444 2661.31 100.67ZM2118.55 422.452V525.045H2083.12V446.385H2084.7V442.194H2083.12V428.09C2084.15 426.365 2085.36 424.653 2086.99 423.073C2092.87 417.338 2101.61 414.667 2112.96 415.119V416.609H2109.99C2109.16 416.609 2108.4 416.862 2107.77 417.302C2106.76 418.008 2106.1 419.183 2106.1 420.516V422.47H2118.55V422.452ZM2284.35 442.188L2285.21 442.164C2285.21 442.055 2285.01 430.966 2293.11 423.061C2296.84 419.431 2301.84 417.169 2307.8 416.012V525.039H2286.94V446.379H2290.84V442.188H2284.35ZM2490.49 442.188L2491.34 442.164C2491.34 442.061 2491.23 433.173 2497.02 425.635V525.045H2493.07V446.385H2496.96V442.194H2490.49V442.188ZM2534.87 422.452V525.045H2499.44V422.922C2505.32 417.302 2513.98 414.667 2525.22 415.113V416.603H2522.24C2521.42 416.603 2520.66 416.856 2520.03 417.296C2519.02 418.002 2518.35 419.177 2518.35 420.51V422.464H2534.87V422.452ZM2590.94 537.63H2584.04V527.216H2590.94V537.63ZM2095.47 537.63H2084.7V537.479H2083.12V527.21H2095.47V537.63ZM2512.27 537.63H2499.45V527.216H2512.27V537.63ZM2581.73 537.63H2575.13V527.216H2581.73V537.63ZM2572.72 537.63H2549.3V527.216H2572.72V537.63ZM2547 537.63H2537.29V527.216H2547V537.63ZM2534.87 537.63H2514.57V527.216H2534.87V537.63ZM2497.02 527.216V537.63H2496.96V537.479H2493.08V527.21H2497.02V527.216ZM2487.88 537.479H2483.99V537.63H2479.84V527.216H2487.88V537.479ZM2477.53 537.63H2461.6V527.216H2477.53V537.63ZM2459.18 537.63H2445.1V527.216H2459.18V537.63ZM2442.8 537.63H2423.75V527.216H2442.8V537.63ZM2421.33 537.63H2410.37V527.216H2421.33V537.63ZM2408.06 537.63H2385.9V527.216H2408.06V537.63ZM2383.49 537.63H2375.63V527.216H2383.49V537.63ZM2373.33 537.63H2348.06V527.216H2373.33V537.63ZM2345.64 537.63H2340.91V527.216H2345.64V537.63ZM2338.6 537.63H2310.21V527.216H2338.6V537.63ZM2307.8 537.63H2306.17V527.216H2307.8V537.63ZM2303.87 527.216V537.63H2290.83V537.479H2286.94V527.21H2303.87V527.216ZM2281.75 537.479H2277.85V537.63H2272.36V527.216H2281.74V537.479H2281.75ZM2269.13 537.63H2236.7V527.216H2269.13V537.63ZM2232.09 537.63H2201.97V527.216H2232.09V537.63ZM2199.66 537.63H2196.66V527.216H2199.66V537.63ZM2194.24 537.63H2167.24V527.216H2194.24V537.63ZM2164.93 537.63H2158.81V527.216H2164.93V537.63ZM2156.4 537.63H2132.51V527.216H2156.4V537.63ZM2130.2 537.63H2120.96V527.216H2130.2V537.63ZM2118.55 537.63H2097.77V527.216H2118.55V537.63ZM2080.7 442.188H2078.22L2079.08 442.164C2079.08 442.097 2079.05 438.105 2080.71 433.239V442.188H2080.7ZM2075.61 537.479H2071.73V537.63H2063.03V527.216H2075.61V537.479ZM2060.73 537.63H2045.28V527.216H2060.73V537.63ZM2042.86 537.63H2028.3V527.216H2042.86V537.63ZM2026 537.63H2007.43V527.216H2026V537.63ZM2005.01 537.63H1993.57V527.216H2005.01V537.63ZM1991.26 537.63H1969.58V527.216H1991.26V537.63ZM1967.16 537.63H1958.84V527.216H1967.16V537.63ZM1956.53 537.63H1931.73V527.216H1956.53V537.63ZM1929.3 537.63H1924.1V527.216H1929.3V537.63ZM1921.8 537.63H1893.89V527.216H1921.8V537.63ZM1891.45 537.63H1889.37V527.216H1891.45V537.63ZM1887.06 537.63H1878.56V537.479H1874.67V527.21H1887.06V537.63ZM1869.49 537.479H1865.6V537.63H1856.03V527.216H1869.49V537.479ZM1852.33 537.63H1819.9V527.216H1852.33V537.63ZM2590.94 90.1718V525.045H2575.13V100.67C2581.08 96.7444 2586.36 93.223 2590.94 90.1718ZM2572.72 102.256V525.045H2537.29V125.369C2550.74 116.685 2562.62 108.901 2572.72 102.256ZM2534.87 126.912V417.694C2534.17 417.025 2533.24 416.603 2532.19 416.603H2529.21V414.571C2529.21 414.016 2528.99 413.515 2528.63 413.153C2528.27 412.792 2527.77 412.563 2527.22 412.563C2526.64 412.563 2526.11 412.816 2525.75 413.214C2525.7 413.268 2525.66 413.334 2525.61 413.389C2514.41 412.894 2505.69 415.445 2499.45 420.763V149.573C2512.17 141.517 2524.02 133.931 2534.87 126.912ZM2497.02 151.098V422.994C2489.54 431.243 2489.6 441.639 2489.61 442.194H2483.99V446.385H2487.88V525.045H2461.59V173.331C2474.01 165.606 2485.84 158.177 2497.02 151.098ZM2459.18 174.814V525.045H2423.75V196.655C2436.01 189.165 2447.84 181.893 2459.18 174.814ZM2421.33 198.12V525.045H2385.9V219.514C2398.04 212.236 2409.88 205.103 2421.33 198.12ZM2383.49 220.955V525.039H2348.06V241.891C2360.12 234.842 2371.95 227.841 2383.49 220.955ZM2318.59 259.028C2327.73 253.77 2336.75 248.53 2345.64 243.326V525.045H2310.21V415.529C2312.98 415.168 2315.9 414.987 2319.09 415.113V416.603H2316.11C2315.29 416.603 2314.53 416.856 2313.9 417.296C2312.89 418.002 2312.23 419.177 2312.23 420.51V422.464H2329.96V420.51C2329.96 419.431 2329.52 418.454 2328.81 417.748C2328.11 417.043 2327.14 416.603 2326.06 416.603H2323.09V414.571C2323.09 414.016 2322.86 413.515 2322.5 413.153C2322.14 412.792 2321.64 412.563 2321.09 412.563C2320.51 412.563 2319.98 412.816 2319.61 413.214C2319.56 413.268 2319.52 413.334 2319.48 413.389C2316.17 413.244 2313.11 413.413 2310.22 413.775V263.834C2313.02 262.23 2315.83 260.626 2318.59 259.028ZM2307.8 265.221V414.257C2301.35 415.457 2295.95 417.875 2291.91 421.819C2283.31 430.212 2283.47 441.609 2283.49 442.188H2277.87V446.379H2281.76V525.039H2272.38V285.258C2284.49 278.481 2296.32 271.794 2307.8 265.221ZM2269.93 286.633V525.045H2234.52V306.17C2246.57 299.598 2258.38 293.085 2269.93 286.633ZM2232.09 307.497V525.045H2196.66V326.539C2208.64 320.184 2220.47 313.828 2232.09 307.497ZM2194.24 327.812V525.045H2158.81V346.312C2170.75 340.167 2182.57 333.992 2194.24 327.812ZM2156.4 347.56V525.045H2120.97V422.452H2123.82V420.498C2123.82 419.419 2123.39 418.442 2122.68 417.736C2122.22 417.272 2121.62 416.989 2120.97 416.802V365.463C2132.87 359.547 2144.7 353.56 2156.4 347.56ZM2118.55 366.663V416.597H2116.96V414.565C2116.96 414.01 2116.74 413.509 2116.37 413.148C2116.01 412.786 2115.51 412.556 2114.96 412.556C2114.37 412.556 2113.84 412.81 2113.48 413.208C2113.43 413.262 2113.39 413.328 2113.35 413.383C2101.34 412.852 2092.07 415.68 2085.78 421.812C2084.77 422.795 2083.9 423.827 2083.12 424.87V383.938C2094.98 378.276 2106.82 372.488 2118.55 366.663ZM2080.7 385.102V428.735C2077.26 435.416 2077.34 441.766 2077.35 442.194H2071.73V446.385H2075.62V525.045H2045.28V401.721C2057.1 396.282 2068.93 390.728 2080.7 385.102ZM2042.86 402.812V525.045H2007.43V418.653C2019.22 413.509 2031.05 408.209 2042.86 402.812ZM2005.01 419.708V525.045H1969.58V434.723C1981.35 429.875 1993.16 424.852 2005.01 419.708ZM1967.16 435.7V525.039H1931.73V449.755C1943.47 445.263 1955.3 440.572 1967.16 435.7ZM1929.3 450.696V525.039H1893.89V463.654C1905.58 459.578 1917.39 455.237 1929.3 450.696ZM1891.45 464.523V525.045H1874.67V470.227C1880.24 468.376 1885.83 466.482 1891.45 464.523ZM1869.49 471.909V525.045H1856.03V476.233C1860.48 474.846 1864.98 473.381 1869.49 471.909ZM1818.18 487.243C1829.79 484.132 1841.62 480.713 1853.61 476.98V525.045H1818.18V487.243ZM1810.09 527.216H1815.77V537.63H1810.09V527.361L1810.09 527.216ZM3426.35 541.67V537.479H3420.68V527.21H3426.35V541.67Z" fill="#0F141A"/>
</svg>
