<svg width="30" height="31" viewBox="0 0 30 31" fill="none" xmlns="http://www.w3.org/2000/svg">
<g clip-path="url(#clip0_194_280)">
<path d="M15 30.5C23.2843 30.5 30 23.7843 30 15.5C30 7.21573 23.2843 0.5 15 0.5C6.71573 0.5 0 7.21573 0 15.5C0 23.7843 6.71573 30.5 15 30.5Z" fill="#5F7EDD"/>
<path d="M14.9985 19.5859L9.9585 16.6084L14.9985 23.7124L20.043 16.6084L14.9985 19.5859Z" fill="white"/>
<path d="M20.04 15.6531L14.9985 18.6321L9.95703 15.6531L14.9985 7.2876L20.04 15.6531Z" fill="white"/>
<path d="M20.04 15.6531L14.9985 13.3611V7.2876L20.04 15.6531Z" fill="#C1CCF7"/>
<path d="M20.043 16.6086L14.9985 23.7126V19.5861L20.043 16.6086Z" fill="#C1CCF7"/>
<path d="M14.9985 13.3611V18.6321L9.9585 15.6531L14.9985 13.3611Z" fill="#C1CCF7"/>
<path d="M20.04 15.6531L14.9985 18.6321V13.3611L20.04 15.6531Z" fill="#8198EE"/>
</g>
<defs>
<clipPath id="clip0_194_280">
<rect width="30" height="30" fill="white" transform="translate(0 0.5)"/>
</clipPath>
</defs>
</svg>
