<svg width="70" height="27" viewBox="0 0 70 27" fill="none" xmlns="http://www.w3.org/2000/svg">
<path d="M3.9502 13.732L9.00004 5.48438L14.0499 13.732L9.00004 16.6739L3.9502 13.732Z" fill="white"/>
<path d="M9.00002 17.6006L13.8881 14.5659L9.00002 21.5156L3.99658 14.5659L9.00002 17.6006Z" fill="white"/>
<path d="M29.476 21H27.1V6.26H29.476V21ZM38.892 21H27.826V18.866H38.892V21ZM38.562 14.642H27.826V12.53H38.562V14.642ZM38.892 8.394H27.826V6.26H38.892V8.394ZM48.0686 21H45.7146V6.26H48.0686V21ZM53.8546 8.394H39.9066V6.26H53.8546V8.394ZM68.6425 21H66.2885V6.26H68.6425V21ZM57.6205 21H55.2445V6.26H57.6205V21ZM67.4545 14.642H56.0145V12.508H67.4545V14.642Z" fill="white"/>
</svg>
