<svg width="61" height="59" viewBox="0 0 61 59" fill="none" xmlns="http://www.w3.org/2000/svg">
<path d="M41 0.5C51.7696 0.5 60.5 9.23045 60.5 20V39C60.5 49.7696 51.7696 58.5 41 58.5H18.5V19.5625C18.5 10.7701 12.8397 3.21135 4.84668 0.5H41Z" fill="#060A08" fill-opacity="0.4" stroke="#5BD184"/>
<mask id="mask0_1050_8990" style="mask-type:luminance" maskUnits="userSpaceOnUse" x="30" y="21" width="18" height="18">
<path d="M30 21H48V39H30V21Z" fill="white"/>
</mask>
<g mask="url(#mask0_1050_8990)">
<path fill-rule="evenodd" clip-rule="evenodd" d="M35.7803 31.7197C36.0732 32.0125 36.0732 32.4874 35.7803 32.7803L33.3107 35.25L35.7803 37.7197C36.0732 38.0125 36.0732 38.4874 35.7803 38.7803C35.4874 39.0732 35.0126 39.0732 34.7197 38.7803L31.7197 35.7803C31.4268 35.4874 31.4268 35.0125 31.7197 34.7197L34.7197 31.7197C35.0126 31.4268 35.4874 31.4268 35.7803 31.7197Z" fill="#6EE18F"/>
<path fill-rule="evenodd" clip-rule="evenodd" d="M45.75 30C46.1642 30 46.5 30.3358 46.5 30.75V32.25C46.5 33.2446 46.1049 34.1984 45.4016 34.9016C44.6984 35.6049 43.7446 36 42.75 36H32.25C31.8358 36 31.5 35.6642 31.5 35.25C31.5 34.8358 31.8358 34.5 32.25 34.5H42.75C43.3467 34.5 43.919 34.2629 44.341 33.841C44.7629 33.419 45 32.8467 45 32.25V30.75C45 30.3358 45.3358 30 45.75 30Z" fill="#6EE18F"/>
<path fill-rule="evenodd" clip-rule="evenodd" d="M42.2192 21.2197C42.512 20.9268 42.9869 20.9268 43.2798 21.2197L46.2798 24.2197C46.5727 24.5126 46.5727 24.9874 46.2798 25.2803L43.2798 28.2803C42.9869 28.5732 42.512 28.5732 42.2192 28.2803C41.9263 27.9874 41.9263 27.5126 42.2192 27.2197L44.6888 24.75L42.2192 22.2803C41.9263 21.9874 41.9263 21.5126 42.2192 21.2197Z" fill="#6EE18F"/>
<path fill-rule="evenodd" clip-rule="evenodd" d="M35.25 25.5C34.6533 25.5 34.081 25.7371 33.659 26.159C33.2371 26.581 33 27.1533 33 27.75V29.25C33 29.6642 32.6642 30 32.25 30C31.8358 30 31.5 29.6642 31.5 29.25V27.75C31.5 26.7554 31.8951 25.8016 32.5984 25.0984C33.3016 24.3951 34.2554 24 35.25 24H45.75C46.1642 24 46.5 24.3358 46.5 24.75C46.5 25.1642 46.1642 25.5 45.75 25.5H35.25Z" fill="#6EE18F"/>
</g>
</svg>
