<svg width="30" height="31" viewBox="0 0 30 31" fill="none" xmlns="http://www.w3.org/2000/svg">
<path d="M30.0038 15.4998C30.0035 18.2904 29.2248 21.0255 27.7554 23.3978C26.286 25.77 24.184 27.6855 21.6858 28.9287C19.1876 30.172 16.3921 30.6939 13.6135 30.4356C10.835 30.1774 8.18357 29.1493 5.95725 27.4669C5.73673 27.3033 5.5207 27.1293 5.30917 26.9493C5.13315 26.8013 4.96063 26.6483 4.79161 26.4902C4.59058 26.3042 4.39406 26.1122 4.20503 25.9142C4.04001 25.7451 3.88099 25.5721 3.72797 25.3951C3.54495 25.1896 3.37093 24.9795 3.20141 24.765C1.72508 22.8843 0.71967 20.678 0.268958 18.3299C-0.181753 15.9818 -0.0647048 13.56 0.610347 11.2663C1.2854 8.97264 2.4989 6.87354 4.14971 5.14396C5.80052 3.41438 7.84082 2.10442 10.1006 1.32326C12.3603 0.542103 14.774 0.312376 17.1406 0.653226C19.5071 0.994076 21.7579 1.89563 23.7053 3.28275C25.6527 4.66986 27.2404 6.50236 28.3361 8.62751C29.4317 10.7527 30.0035 13.1089 30.0038 15.4998Z" fill="url(#paint0_linear_194_302)"/>
<path d="M22.5464 12.5835V21.8576H20.6082V10.3227C20.3021 10.2396 19.9862 10.1988 19.6691 10.2012C19.4546 10.1979 19.2402 10.2134 19.0285 10.2477L18.0414 17.8551C17.8793 19.1213 17.2223 19.9554 16.1376 20.2689L16.0296 21.1691C16.0122 21.4254 15.8947 21.6646 15.7024 21.835C15.5101 22.0054 15.2585 22.0933 15.002 22.0797C14.7471 22.0875 14.4989 21.9973 14.3086 21.8276C14.1182 21.6579 14.0002 21.4217 13.9788 21.1676L13.8633 20.2674C12.7682 19.9554 12.1261 19.1438 11.9596 17.8536L10.974 10.2492C10.7622 10.2154 10.5478 10.2004 10.3334 10.2042C10.0162 10.2009 9.70015 10.2418 9.39426 10.3257V21.8621H7.45752V12.588C7.45752 11.3293 8.02309 10.4397 9.05072 10.0707V9.47058C9.05072 8.78049 9.47077 8.31543 10.1009 8.31543C10.7309 8.31543 11.115 8.70398 11.2155 9.41357L11.2935 9.96714C12.4186 10.2822 13.0757 11.1868 13.2708 12.6555L14.1829 19.9899C14.7279 20.0949 15.288 20.0949 15.8331 19.9899L16.7452 12.657C16.9357 11.1868 17.6003 10.2822 18.7224 9.95664L18.8005 9.40157C18.901 8.69648 19.297 8.30493 19.9151 8.30493C20.5332 8.30493 20.9652 8.76849 20.9652 9.46008V10.0602C21.9809 10.4367 22.5464 11.3263 22.5464 12.5835Z" fill="url(#paint1_linear_194_302)"/>
<defs>
<linearGradient id="paint0_linear_194_302" x1="15.0019" y1="30.5017" x2="15.0019" y2="0.497945" gradientUnits="userSpaceOnUse">
<stop offset="0.06" stop-color="#8C7BF2"/>
<stop offset="0.1" stop-color="#9179E4"/>
<stop offset="0.35" stop-color="#B26983"/>
<stop offset="0.52" stop-color="#C76046"/>
<stop offset="0.6" stop-color="#CF5C2E"/>
<stop offset="0.86" stop-color="#D8A27E"/>
<stop offset="1" stop-color="#D4C9C2"/>
</linearGradient>
<linearGradient id="paint1_linear_194_302" x1="15.002" y1="22.0857" x2="15.002" y2="8.31393" gradientUnits="userSpaceOnUse">
<stop stop-color="#D9D8D9"/>
<stop offset="1" stop-color="#FFFEFF"/>
</linearGradient>
</defs>
</svg>
