<svg width="131" height="50" viewBox="0 0 131 50" fill="none" xmlns="http://www.w3.org/2000/svg">
<mask id="mask0_194_317" style="mask-type:alpha" maskUnits="userSpaceOnUse" x="0" y="0" width="41" height="50">
<path fill-rule="evenodd" clip-rule="evenodd" d="M18.5367 25.8537L30.8853 0.00077098L31.4312 0.261475L19.0825 26.1144L18.5367 25.8537Z" fill="#03FF9F"/>
<path fill-rule="evenodd" clip-rule="evenodd" d="M20.9755 28.5367L30.8851 0.000789989L31.4565 0.199219L21.5469 28.7351L20.9755 28.5367Z" fill="#03FF9F"/>
<path fill-rule="evenodd" clip-rule="evenodd" d="M23.4143 31.2194L30.8849 0.000587306L31.4731 0.141357L24.0026 31.3602L23.4143 31.2194Z" fill="#03FF9F"/>
<path fill-rule="evenodd" clip-rule="evenodd" d="M25.8536 33.6585L30.8852 0.000658357L31.4834 0.0900879L26.4518 33.7479L25.8536 33.6585Z" fill="#03FF9F"/>
<path fill-rule="evenodd" clip-rule="evenodd" d="M28.2928 37.5608L30.8853 0.000585114L31.4888 0.0422363L28.8962 37.6025L28.2928 37.5608Z" fill="#03FF9F"/>
<path fill-rule="evenodd" clip-rule="evenodd" d="M0.0927734 16.1409V49.9999H9.30808V27.5376L0.0927734 16.1409ZM0.697646 17.8509V49.395H8.70321V27.7516L0.697646 17.8509Z" fill="#03FF9F"/>
<path fill-rule="evenodd" clip-rule="evenodd" d="M40.0869 48.0391V4.95911e-05H30.8716V36.6423L40.0869 48.0391ZM39.482 46.329V0.604923H31.4765V36.4283L39.482 46.329Z" fill="#03FF9F"/>
<path d="M0.0926529 14.1575L0 0L40.1012 49.9998L28.8624 50L0.940536 15.1877L0.0926529 14.1575Z" fill="#03FF9F"/>
</mask>
<g mask="url(#mask0_194_317)">
<path d="M0.0791016 0H41.2109V49.9998H0.0791016V0Z" fill="url(#paint0_linear_194_317)"/>
</g>
<path d="M58.7708 38.0202H54.4912V11.5854H59.0878L70.9757 27.0517L74.4232 31.9836H74.7402L74.542 27.2096V11.5854H78.8217V38.0202H74.225L62.2579 22.5933L58.9293 17.9377H58.6123L58.7708 22.5144V38.0202Z" fill="white"/>
<path d="M92.4478 38.4147C90.2816 38.4147 88.3663 37.9939 86.702 37.1522C85.0641 36.2842 83.7829 35.0874 82.8583 33.5618C81.9601 32.0099 81.511 30.2344 81.511 28.2354C81.511 26.1837 81.9601 24.3951 82.8583 22.8695C83.7829 21.3439 85.0641 20.1603 86.702 19.3186C88.3663 18.4506 90.2816 18.0166 92.4478 18.0166C94.6668 18.0166 96.5953 18.4506 98.2332 19.3186C99.8711 20.1603 101.139 21.3439 102.037 22.8695C102.962 24.3951 103.424 26.1837 103.424 28.2354C103.424 30.2344 102.962 32.0099 102.037 33.5618C101.139 35.0874 99.8711 36.2842 98.2332 37.1522C96.5953 37.9939 94.6668 38.4147 92.4478 38.4147ZM92.4478 34.6271C94.8518 34.6271 96.5821 34.0878 97.6388 33.0094C98.6955 31.9047 99.2239 30.3133 99.2239 28.2354C99.2239 26.1574 98.6955 24.5661 97.6388 23.4613C96.5821 22.3303 94.8518 21.7648 92.4478 21.7648C90.0702 21.7648 88.3531 22.3303 87.2964 23.4613C86.2397 24.5661 85.7113 26.1574 85.7113 28.2354C85.7113 30.3133 86.2397 31.9047 87.2964 33.0094C88.3531 34.0878 90.0702 34.6271 92.4478 34.6271Z" fill="white"/>
<path d="M110.413 38.0202H106.134V18.4111H110.057V23.9743L110.413 24.1715V38.0202ZM110.413 27.0123H109.462V23.6981H110.334C110.519 22.6196 110.889 21.6596 111.444 20.8179C111.998 19.9499 112.738 19.266 113.663 18.7662C114.614 18.2665 115.763 18.0166 117.11 18.0166C118.616 18.0166 119.844 18.3322 120.795 18.9635C121.746 19.5948 122.433 20.4365 122.856 21.4886C123.305 22.5407 123.53 23.6849 123.53 24.9212V27.4857H119.29V25.7497C119.29 24.3294 118.973 23.2904 118.339 22.6328C117.704 21.9752 116.648 21.6464 115.168 21.6464C113.478 21.6464 112.262 22.1067 111.523 23.0273C110.783 23.948 110.413 25.2763 110.413 27.0123Z" fill="white"/>
<path d="M130.101 38.0202H125.821V18.4111H130.101V38.0202ZM130.101 16.1228H125.821V11.5854H130.101V16.1228Z" fill="white"/>
<defs>
<linearGradient id="paint0_linear_194_317" x1="0.0791016" y1="0" x2="34.1494" y2="54.4206" gradientUnits="userSpaceOnUse">
<stop offset="0.1" stop-color="#6EE18F"/>
<stop offset="0.5" stop-color="#00E48D"/>
<stop offset="0.9" stop-color="#006A3C"/>
</linearGradient>
</defs>
</svg>
