<svg width="5058" height="638" viewBox="0 0 5058 638" fill="none" xmlns="http://www.w3.org/2000/svg">
<path d="M1779.32 637.048C1812.35 567.52 2056.79 86.3983 2496.99 86.3983C2945.81 86.3983 3133.97 567.52 3158.82 637.048H3161.71V280.609C3161.71 280.609 2926.91 1 2496.99 1C2104.21 1 1775.45 280.609 1775.45 280.609V637.048H1779.32Z" stroke="black" stroke-width="0.6278" stroke-miterlimit="10"/>
<path d="M1796.48 637.049C1865.33 506.677 2102.57 120.469 2496.98 120.469C2899.1 120.469 3091.98 506.683 3145.64 637.049H3161.7V314.667C3161.7 314.667 2926.9 35.0582 2496.98 35.0582C2104.2 35.0582 1775.44 314.667 1775.44 314.667V637.049H1796.48Z" stroke="black" stroke-width="0.6278" stroke-miterlimit="10"/>
<path d="M1852.07 257.319V508.914" stroke="black" stroke-width="0.6278" stroke-miterlimit="10"/>
<path d="M1954.82 193.617V370.557" stroke="black" stroke-width="0.6278" stroke-miterlimit="10"/>
<path d="M2057.57 140.672V360.236" stroke="black" stroke-width="0.6278" stroke-miterlimit="10"/>
<path d="M2160.32 98.1771V360.236" stroke="black" stroke-width="0.6278" stroke-miterlimit="10"/>
<path d="M2263.07 66.7909V360.236" stroke="black" stroke-width="0.6278" stroke-miterlimit="10"/>
<path d="M2365.83 44.7155V360.235" stroke="black" stroke-width="0.6278" stroke-miterlimit="10"/>
<path d="M2468.58 36.1168V360.235" stroke="black" stroke-width="0.6278" stroke-miterlimit="10"/>
<path d="M2571.33 38.2048V360.234" stroke="black" stroke-width="0.6278" stroke-miterlimit="10"/>
<path d="M2674.08 51.9927V360.235" stroke="black" stroke-width="0.6278" stroke-miterlimit="10"/>
<path d="M2776.83 77.0122V360.235" stroke="black" stroke-width="0.6278" stroke-miterlimit="10"/>
<path d="M2879.59 115.972V360.234" stroke="black" stroke-width="0.6278" stroke-miterlimit="10"/>
<path d="M2982.34 169.781V362.212" stroke="black" stroke-width="0.6278" stroke-miterlimit="10"/>
<path d="M3085.09 242.656V477.805" stroke="black" stroke-width="0.6278" stroke-miterlimit="10"/>
<path d="M1775.45 314.666L1852.07 508.914" stroke="black" stroke-width="0.6278" stroke-miterlimit="10"/>
<path d="M1852.07 257.319L1954.82 370.557" stroke="black" stroke-width="0.6278" stroke-miterlimit="10"/>
<path d="M1954.82 193.618L2057.57 263.494" stroke="black" stroke-width="0.6278" stroke-miterlimit="10"/>
<path d="M2057.57 140.672L2160.32 188.206" stroke="black" stroke-width="0.6278" stroke-miterlimit="10"/>
<path d="M2160.32 98.1776L2261.06 133.915" stroke="black" stroke-width="0.6278" stroke-miterlimit="10"/>
<path d="M2263.07 66.7914L2365.83 101.413" stroke="black" stroke-width="0.6278" stroke-miterlimit="10"/>
<path d="M2365.83 44.717L2468.58 87.379" stroke="black" stroke-width="0.6278" stroke-miterlimit="10"/>
<path d="M2468.57 36.1178L2571.32 90.9423" stroke="black" stroke-width="0.6278" stroke-miterlimit="10"/>
<path d="M2571.33 38.2064L2674.08 113.395" stroke="black" stroke-width="0.6278" stroke-miterlimit="10"/>
<path d="M2674.08 51.9941L2776.83 157.415" stroke="black" stroke-width="0.6278" stroke-miterlimit="10"/>
<path d="M2776.83 77.0138L2879.59 227.298" stroke="black" stroke-width="0.6278" stroke-miterlimit="10"/>
<path d="M2879.59 115.973L2982.34 330.169" stroke="black" stroke-width="0.6278" stroke-miterlimit="10"/>
<path d="M2982.34 169.781L3085.09 477.806" stroke="black" stroke-width="0.6278" stroke-miterlimit="10"/>
<path d="M3085.09 242.657L3158.82 637.047" stroke="black" stroke-width="0.6278" stroke-miterlimit="10"/>
<path d="M1775.45 314.667L1805.03 257.319L1865.68 248.486L1891.72 197.474L1954.82 193.618L1989.17 140.672H2057.57L2101 87.3782L2158.45 98.177L2210.69 47.1153L2263.07 66.7912L2308.86 21.3458L2368.32 44.7163L2418.58 4.62698L2468.58 36.1182L2519.95 1.26709L2571.32 38.2073L2632.54 10.5223L2674.08 51.994L2734.48 30.9234L2776.83 77.0134L2840.35 65.3282L2879.59 115.974L2951.21 117.654L2982.33 169.782L3052.82 183.135L3085.08 242.659L3134.79 252.441L3161.7 313.043" stroke="black" stroke-width="0.6278" stroke-miterlimit="10"/>
<path d="M3161.7 280.603L3120.51 273.003L3095.14 216.61L3033.71 204.057L2999.33 146.325L2936.31 143.622L2891.95 87.4588L2828.21 94.7179L2786.74 46.1359L2728.81 63.5243L2680.13 18.5624L2622.71 43.2285L2571.32 3.82727L2519.95 35.0581L2468.58 1.26709L2419.08 38.6474L2363.72 11.3468L2310.51 55.0625L2255.18 34.2089L2210.69 81.173L2154.57 66.2208L2108.94 118.132L2046.4 111.852L2003.13 167.402L1940.1 168.016L1903.44 224.167L1845.32 228.258L1816.94 282.525L1775.45 280.603" stroke="black" stroke-width="0.6278" stroke-miterlimit="10"/>
<path d="M1779.32 637.049L1825.1 585.932L1852.07 508.915L1912.45 456.278L1954.82 370.558L2025.81 328.758L2057.57 266.054L2116.54 252.193L2160.32 188.206H2220.04L2263.07 133.915L2319.92 147.46L2364.26 101.413L2417.2 125.825L2468.57 87.3785L2517.93 120.822L2571.32 90.943L2611.19 131.367L2674.08 113.396L2710.53 160.41L2776.83 157.415L2811.28 211.769L2879.58 227.297L2909.7 287.751L2981.58 328.615L3009.63 398.491L3084.5 476.047L3104.04 548.043L3158.82 637.049" stroke="black" stroke-width="0.6278" stroke-miterlimit="10"/>
<path d="M3145.64 637.049L3123.19 552.395L3064.03 477.808L3027.47 388.69L2964.38 343.462L2924.33 267.542L2862.99 249.98L2824.54 186.34H2770.72L2722.25 131.119L2663.96 144.342L2615.13 98.0906L2567.58 124.554L2516.88 87.3787L2467.11 121.213L2412.79 92.3751L2365.82 135.118L2311.61 116.049L2269.21 165.698L2210.69 158.978L2169.96 216.251L2106.45 225.642L2071.87 287.323L2006.29 313.936L1968.27 388.585L1900.7 437.824L1861.61 527.642L1810.79 576.708L1796.48 637.049" stroke="black" stroke-width="0.6278" stroke-miterlimit="10"/>
<path fill-rule="evenodd" clip-rule="evenodd" d="M1785.9 637.05L1774.87 231.135H1685.33L1674.31 637.05H1785.9ZM1740.63 371.295V347.633C1740.63 338.719 1735.91 331.497 1730.1 331.497C1724.29 331.497 1719.57 338.719 1719.57 347.633V371.295H1740.63ZM1714.16 247.201H1746.05V263.493H1714.16V247.201Z" fill="black"/>
<path d="M1770.58 204.056H1689.62V231.133H1770.58V204.056Z" fill="black"/>
<path d="M1766.08 197.473H1694.12V204.056H1766.08V197.473Z" fill="black"/>
<path d="M3167.37 360.185H1476.63V373.013H3167.37V360.185Z" fill="black" stroke="black" stroke-width="0.6278" stroke-miterlimit="10"/>
<path d="M3167.37 365.316H1476.63V367.882H3167.37V365.316Z" fill="black" stroke="black" stroke-width="0.6278" stroke-miterlimit="10"/>
<path d="M303.688 637.048C336.716 567.52 581.151 86.3983 1021.36 86.3983C1470.18 86.3983 1658.34 567.52 1683.19 637.048H1686.07V280.609C1686.07 280.609 1451.28 1 1021.36 1C628.58 1 299.819 280.609 299.819 280.609V637.048H303.688Z" stroke="black" stroke-width="0.6278" stroke-miterlimit="10"/>
<path d="M320.843 637.049C389.696 506.677 626.941 120.469 1021.35 120.469C1423.47 120.469 1616.35 506.683 1670.01 637.049H1686.06V314.667C1686.06 314.667 1451.27 35.0582 1021.35 35.0582C628.571 35.0582 299.81 314.667 299.81 314.667V637.049H320.843Z" stroke="black" stroke-width="0.6278" stroke-miterlimit="10"/>
<path d="M376.435 257.319V508.914" stroke="black" stroke-width="0.6278" stroke-miterlimit="10"/>
<path d="M479.184 193.617V370.557" stroke="black" stroke-width="0.6278" stroke-miterlimit="10"/>
<path d="M581.941 140.672V360.236" stroke="black" stroke-width="0.6278" stroke-miterlimit="10"/>
<path d="M684.686 98.1771V360.236" stroke="black" stroke-width="0.6278" stroke-miterlimit="10"/>
<path d="M787.438 66.7909V360.236" stroke="black" stroke-width="0.6278" stroke-miterlimit="10"/>
<path d="M890.192 44.7155V360.235" stroke="black" stroke-width="0.6278" stroke-miterlimit="10"/>
<path d="M992.944 36.1168V360.235" stroke="black" stroke-width="0.6278" stroke-miterlimit="10"/>
<path d="M1095.7 38.2048V360.234" stroke="black" stroke-width="0.6278" stroke-miterlimit="10"/>
<path d="M1198.45 51.9927V360.235" stroke="black" stroke-width="0.6278" stroke-miterlimit="10"/>
<path d="M1301.2 77.0122V360.235" stroke="black" stroke-width="0.6278" stroke-miterlimit="10"/>
<path d="M1403.95 115.972V360.234" stroke="black" stroke-width="0.6278" stroke-miterlimit="10"/>
<path d="M1506.7 169.781V362.213" stroke="black" stroke-width="0.6278" stroke-miterlimit="10"/>
<path d="M1609.45 242.656V477.805" stroke="black" stroke-width="0.6278" stroke-miterlimit="10"/>
<path d="M299.82 314.666L376.435 508.914" stroke="black" stroke-width="0.6278" stroke-miterlimit="10"/>
<path d="M376.435 257.319L479.185 370.557" stroke="black" stroke-width="0.6278" stroke-miterlimit="10"/>
<path d="M479.182 193.618L581.938 263.494" stroke="black" stroke-width="0.6278" stroke-miterlimit="10"/>
<path d="M581.939 140.672L684.688 188.206" stroke="black" stroke-width="0.6278" stroke-miterlimit="10"/>
<path d="M684.689 98.1776L785.43 133.915" stroke="black" stroke-width="0.6278" stroke-miterlimit="10"/>
<path d="M787.441 66.7914L890.196 101.413" stroke="black" stroke-width="0.6278" stroke-miterlimit="10"/>
<path d="M890.198 44.717L992.947 87.379" stroke="black" stroke-width="0.6278" stroke-miterlimit="10"/>
<path d="M992.94 36.1178L1095.69 90.9423" stroke="black" stroke-width="0.6278" stroke-miterlimit="10"/>
<path d="M1095.69 38.2064L1198.45 113.395" stroke="black" stroke-width="0.6278" stroke-miterlimit="10"/>
<path d="M1198.45 51.9941L1301.2 157.415" stroke="black" stroke-width="0.6278" stroke-miterlimit="10"/>
<path d="M1301.2 77.0138L1403.95 227.298" stroke="black" stroke-width="0.6278" stroke-miterlimit="10"/>
<path d="M1403.96 115.973L1506.71 330.169" stroke="black" stroke-width="0.6278" stroke-miterlimit="10"/>
<path d="M1506.71 169.781L1609.45 477.806" stroke="black" stroke-width="0.6278" stroke-miterlimit="10"/>
<path d="M1609.45 242.657L1683.18 637.047" stroke="black" stroke-width="0.6278" stroke-miterlimit="10"/>
<path d="M299.818 314.667L329.394 257.319L390.046 248.486L416.088 197.474L479.182 193.618L513.537 140.672H581.938L625.368 87.3782L682.821 98.177L735.061 47.1153L787.436 66.7912L833.229 21.3458L892.69 44.7163L942.946 4.62698L992.942 36.1182L1044.31 1.26709L1095.69 38.2073L1156.91 10.5223L1198.45 51.994L1258.85 30.9234L1301.2 77.0134L1364.71 65.3282L1403.95 115.974L1475.58 117.654L1506.7 169.782L1577.19 183.135L1609.45 242.659L1659.15 252.441L1686.06 313.043" stroke="black" stroke-width="0.6278" stroke-miterlimit="10"/>
<path d="M1686.06 280.603L1644.87 273.003L1619.51 216.61L1558.08 204.057L1523.7 146.325L1460.68 143.622L1416.32 87.4588L1352.57 94.7179L1311.1 46.1359L1253.18 63.5243L1204.5 18.5624L1147.07 43.2285L1095.69 3.82727L1044.31 35.0581L992.942 1.26709L943.442 38.6474L888.084 11.3468L834.872 55.0625L779.545 34.2089L735.061 81.173L678.934 66.2208L633.309 118.132L570.767 111.852L527.497 167.402L464.465 168.016L427.81 224.167L369.688 228.258L341.309 282.525L299.818 280.603" stroke="black" stroke-width="0.6278" stroke-miterlimit="10"/>
<path d="M303.686 637.049L349.466 585.932L376.432 508.915L436.817 456.278L479.181 370.558L550.173 328.758L581.937 266.054L640.903 252.193L684.686 188.206H744.408L787.436 133.915L844.281 147.46L888.623 101.413L941.563 125.825L992.941 87.3785L1042.29 120.822L1095.69 90.943L1135.56 131.367L1198.45 113.396L1234.9 160.41L1301.2 157.415L1335.64 211.769L1403.95 227.297L1434.07 287.751L1505.95 328.615L1534 398.491L1608.87 476.047L1628.41 548.043L1683.18 637.049" stroke="black" stroke-width="0.6278" stroke-miterlimit="10"/>
<path d="M1670.01 637.049L1647.56 552.395L1588.4 477.808L1551.83 388.69L1488.75 343.462L1448.69 267.542L1387.35 249.98L1348.91 186.34H1295.08L1246.62 131.119L1188.32 144.342L1139.49 98.0906L1091.94 124.554L1041.24 87.3787L991.477 121.213L937.161 92.3751L890.19 135.118L835.973 116.049L793.572 165.698L735.059 158.978L694.325 216.251L630.822 225.642L596.237 287.323L530.657 313.936L492.638 388.585L425.069 437.824L385.977 527.642L335.157 576.708L320.844 637.049" stroke="black" stroke-width="0.6278" stroke-miterlimit="10"/>
<path fill-rule="evenodd" clip-rule="evenodd" d="M310.262 637.05L299.235 231.135H209.699L198.672 637.05H310.262ZM264.994 371.295V347.633C264.994 338.719 260.279 331.497 254.468 331.497C248.653 331.497 243.942 338.719 243.942 347.633V371.295H264.994ZM238.527 247.201H270.417V263.493H238.527V247.201Z" fill="black"/>
<path d="M294.944 204.056H213.99V231.133H294.944V204.056Z" fill="black"/>
<path d="M290.443 197.473H218.487V204.056H290.443V197.473Z" fill="black"/>
<path d="M1691.73 360.185H1V373.013H1691.73V360.185Z" fill="black" stroke="black" stroke-width="0.6278" stroke-miterlimit="10"/>
<path d="M1691.73 365.316H1V367.882H1691.73V365.316Z" fill="black" stroke="black" stroke-width="0.6278" stroke-miterlimit="10"/>
<path d="M3329.16 637.046C3362.18 567.518 3606.62 86.398 4046.82 86.398C4495.64 86.398 4683.8 567.518 4708.65 637.046H4711.54V280.608C4711.54 280.608 4476.74 1 4046.82 1C3654.05 1 3325.29 280.608 3325.29 280.608V637.046H3329.16Z" stroke="black" stroke-width="0.6278" stroke-miterlimit="10"/>
<path d="M3346.31 637.047C3415.16 506.675 3652.4 120.468 4046.81 120.468C4448.93 120.468 4641.81 506.681 4695.47 637.047H4711.52V314.665C4711.52 314.665 4476.73 35.0577 4046.81 35.0577C3654.04 35.0577 3325.28 314.665 3325.28 314.665V637.047H3346.31Z" stroke="black" stroke-width="0.6278" stroke-miterlimit="10"/>
<path d="M3401.9 257.318V508.912" stroke="black" stroke-width="0.6278" stroke-miterlimit="10"/>
<path d="M3504.65 193.616V370.556" stroke="black" stroke-width="0.6278" stroke-miterlimit="10"/>
<path d="M3607.41 140.671V360.235" stroke="black" stroke-width="0.6278" stroke-miterlimit="10"/>
<path d="M3710.15 98.1765V360.235" stroke="black" stroke-width="0.6278" stroke-miterlimit="10"/>
<path d="M3812.9 66.7908V360.235" stroke="black" stroke-width="0.6278" stroke-miterlimit="10"/>
<path d="M3915.66 44.7155V360.234" stroke="black" stroke-width="0.6278" stroke-miterlimit="10"/>
<path d="M4018.41 36.1167V360.234" stroke="black" stroke-width="0.6278" stroke-miterlimit="10"/>
<path d="M4121.16 38.2053V360.233" stroke="black" stroke-width="0.6278" stroke-miterlimit="10"/>
<path d="M4223.91 51.9926V360.234" stroke="black" stroke-width="0.6278" stroke-miterlimit="10"/>
<path d="M4326.66 77.0122V360.234" stroke="black" stroke-width="0.6278" stroke-miterlimit="10"/>
<path d="M4429.42 115.972V360.233" stroke="black" stroke-width="0.6278" stroke-miterlimit="10"/>
<path d="M4532.17 169.781V362.211" stroke="black" stroke-width="0.6278" stroke-miterlimit="10"/>
<path d="M4634.92 242.655V477.803" stroke="black" stroke-width="0.6278" stroke-miterlimit="10"/>
<path d="M3325.29 314.665L3401.9 508.912" stroke="black" stroke-width="0.6278" stroke-miterlimit="10"/>
<path d="M3401.9 257.318L3504.65 370.556" stroke="black" stroke-width="0.6278" stroke-miterlimit="10"/>
<path d="M3504.65 193.618L3607.4 263.493" stroke="black" stroke-width="0.6278" stroke-miterlimit="10"/>
<path d="M3607.41 140.671L3710.15 188.206" stroke="black" stroke-width="0.6278" stroke-miterlimit="10"/>
<path d="M3710.16 98.1771L3810.9 133.915" stroke="black" stroke-width="0.6278" stroke-miterlimit="10"/>
<path d="M3812.91 66.7913L3915.66 101.413" stroke="black" stroke-width="0.6278" stroke-miterlimit="10"/>
<path d="M3915.66 44.7169L4018.41 87.3787" stroke="black" stroke-width="0.6278" stroke-miterlimit="10"/>
<path d="M4018.41 36.1178L4121.16 90.9421" stroke="black" stroke-width="0.6278" stroke-miterlimit="10"/>
<path d="M4121.16 38.2064L4223.91 113.395" stroke="black" stroke-width="0.6278" stroke-miterlimit="10"/>
<path d="M4223.91 51.9937L4326.66 157.415" stroke="black" stroke-width="0.6278" stroke-miterlimit="10"/>
<path d="M4326.66 77.0138L4429.42 227.297" stroke="black" stroke-width="0.6278" stroke-miterlimit="10"/>
<path d="M4429.42 115.972L4532.17 330.168" stroke="black" stroke-width="0.6278" stroke-miterlimit="10"/>
<path d="M4532.17 169.781L4634.92 477.805" stroke="black" stroke-width="0.6278" stroke-miterlimit="10"/>
<path d="M4634.92 242.656L4708.65 637.045" stroke="black" stroke-width="0.6278" stroke-miterlimit="10"/>
<path d="M3325.29 314.666L3354.86 257.318L3415.51 248.485L3441.56 197.473L3504.65 193.617L3539.01 140.671H3607.41L3650.84 87.378L3708.29 98.1767L3760.53 47.1152L3812.9 66.791L3858.7 21.3458L3918.16 44.7161L3968.41 4.62697L4018.41 36.1181L4069.78 1.26709L4121.16 38.2072L4182.37 10.5222L4223.91 51.9938L4284.32 30.9233L4326.66 77.0131L4390.18 65.328L4429.42 115.974L4501.04 117.654L4532.17 169.782L4602.66 183.135L4634.92 242.658L4684.62 252.44L4711.53 313.042" stroke="black" stroke-width="0.6278" stroke-miterlimit="10"/>
<path d="M4711.53 280.602L4670.34 273.002L4644.97 216.609L4583.54 204.056L4549.16 146.325L4486.14 143.622L4441.78 87.4586L4378.04 94.7176L4336.57 46.1357L4278.64 63.5241L4229.96 18.5624L4172.54 43.2284L4121.16 3.82726L4069.78 35.058L4018.41 1.26709L3968.91 38.6473L3913.55 11.3467L3860.34 55.0623L3805.01 34.2088L3760.53 81.1727L3704.4 66.2206L3658.78 118.131L3596.24 111.852L3552.97 167.401L3489.93 168.015L3453.28 224.166L3395.16 228.257L3366.78 282.524L3325.29 280.602" stroke="black" stroke-width="0.6278" stroke-miterlimit="10"/>
<path d="M3329.15 637.047L3374.93 585.93L3401.9 508.913L3462.28 456.277L3504.65 370.556L3575.64 328.756L3607.4 266.053L3666.37 252.192L3710.15 188.205H3769.87L3812.9 133.914L3869.75 147.459L3914.09 101.413L3967.03 125.824L4018.41 87.3781L4067.76 120.822L4121.16 90.9425L4161.02 131.366L4223.91 113.395L4260.36 160.409L4326.66 157.415L4361.11 211.768L4429.42 227.297L4459.53 287.75L4531.41 328.614L4559.47 398.489L4634.33 476.045L4653.87 548.041L4708.65 637.047" stroke="black" stroke-width="0.6278" stroke-miterlimit="10"/>
<path d="M4695.47 637.047L4673.02 552.393L4613.86 477.806L4577.3 388.689L4514.21 343.461L4474.16 267.541L4412.82 249.979L4374.37 186.34H4320.55L4272.08 131.119L4213.79 144.341L4164.96 98.0901L4117.41 124.554L4066.71 87.3782L4016.94 121.213L3962.63 92.3746L3915.66 135.117L3861.44 116.049L3819.04 165.697L3760.53 158.977L3719.79 216.25L3656.29 225.642L3621.7 287.322L3556.12 313.935L3518.11 388.583L3450.54 437.822L3411.44 527.64L3360.63 576.706L3346.31 637.047" stroke="black" stroke-width="0.6278" stroke-miterlimit="10"/>
<path fill-rule="evenodd" clip-rule="evenodd" d="M3335.73 637.047L3324.7 231.133H3235.16L3224.14 637.047H3335.73ZM3290.46 371.293V347.631C3290.46 338.717 3285.74 331.495 3279.93 331.495C3274.12 331.495 3269.4 338.717 3269.4 347.631V371.293H3290.46ZM3263.99 247.2H3295.88V263.491H3263.99V247.2Z" fill="black"/>
<path d="M3320.41 204.054H3239.46V231.132H3320.41V204.054Z" fill="black"/>
<path d="M3315.91 197.472H3243.95V204.055H3315.91V197.472Z" fill="black"/>
<path fill-rule="evenodd" clip-rule="evenodd" d="M4804.15 637.048L4793.12 231.135H4703.58L4692.56 637.048H4804.15ZM4758.88 371.294V347.633C4758.88 338.718 4754.16 331.496 4748.35 331.496C4742.53 331.496 4737.82 338.718 4737.82 347.633V371.294H4758.88ZM4732.4 247.201H4764.29V263.493H4732.4V247.201Z" fill="black"/>
<path d="M4788.82 204.056H4707.88V231.133H4788.82V204.056Z" fill="black"/>
<path d="M4784.33 197.473H4712.37V204.056H4784.33V197.473Z" fill="black"/>
<path d="M5057.34 360.235H3025.94V373.117H5057.34V360.235Z" fill="black" stroke="black" stroke-width="0.6278" stroke-miterlimit="10"/>
<path d="M5057.34 364.518H3025.94V368.827H5057.34V364.518Z" fill="black" stroke="black" stroke-width="0.6278" stroke-miterlimit="10"/>
<path fill-rule="evenodd" clip-rule="evenodd" d="M3262.48 637.049L3250.65 193.848H3162.71L3150.89 637.049H3262.48ZM3217.02 334.007V310.351C3217.02 301.437 3212.39 294.209 3206.68 294.209C3200.97 294.209 3196.34 301.431 3196.34 310.351V334.007H3217.02ZM3191.02 209.914H3222.34V226.205H3191.02V209.914Z" fill="black"/>
<path d="M3250.65 193.848L3250.81 193.844L3250.81 193.691H3250.65V193.848ZM3262.48 637.049V637.206H3262.64L3262.63 637.045L3262.48 637.049ZM3162.71 193.848V193.691H3162.56L3162.55 193.844L3162.71 193.848ZM3150.89 637.049L3150.73 637.045L3150.72 637.206H3150.89V637.049ZM3217.02 334.007V334.164H3217.18V334.007H3217.02ZM3196.34 334.007H3196.18V334.164H3196.34V334.007ZM3222.34 209.914H3222.5V209.757H3222.34V209.914ZM3191.02 209.914V209.757H3190.86V209.914H3191.02ZM3222.34 226.205V226.362H3222.5V226.205H3222.34ZM3191.02 226.205H3190.86V226.362H3191.02V226.205ZM3250.5 193.852L3262.32 637.053L3262.63 637.045L3250.81 193.844L3250.5 193.852ZM3162.71 194.005H3250.65V193.691H3162.71V194.005ZM3151.04 637.053L3162.87 193.852L3162.55 193.844L3150.73 637.045L3151.04 637.053ZM3262.48 636.892H3150.89V637.206H3262.48V636.892ZM3216.86 310.351V334.007H3217.18V310.351H3216.86ZM3206.68 294.366C3209.46 294.366 3212 296.128 3213.86 299.022C3215.71 301.915 3216.86 305.92 3216.86 310.351H3217.18C3217.18 305.869 3216.01 301.803 3214.12 298.853C3212.23 295.904 3209.6 294.052 3206.68 294.052V294.366ZM3196.49 310.351C3196.49 305.917 3197.65 301.911 3199.5 299.02C3201.35 296.126 3203.89 294.366 3206.68 294.366V294.052C3203.75 294.052 3201.12 295.903 3199.23 298.85C3197.34 301.8 3196.18 305.866 3196.18 310.351H3196.49ZM3196.49 334.007V310.351H3196.18V334.007H3196.49ZM3217.02 333.85H3196.34V334.164H3217.02V333.85ZM3222.34 209.757H3191.02V210.071H3222.34V209.757ZM3222.5 226.205V209.914H3222.19V226.205H3222.5ZM3191.02 226.362H3222.34V226.048H3191.02V226.362ZM3190.86 209.914V226.205H3191.18V209.914H3190.86Z" fill="black"/>
<path d="M3246.44 166.77H3166.93V193.848H3246.44V166.77Z" fill="black"/>
<path d="M3242.02 160.187H3171.34V166.764H3242.02V160.187Z" fill="black"/>
<path fill-rule="evenodd" clip-rule="evenodd" d="M4877.83 637.049L4866.01 193.849H4778.06L4766.24 637.049H4877.83ZM4832.38 334.008V310.353C4832.38 301.438 4827.75 294.21 4822.04 294.21C4816.33 294.21 4811.7 301.432 4811.7 310.353V334.008H4832.38ZM4806.38 209.915H4837.7V226.206H4806.38V209.915Z" fill="black"/>
<path d="M4866.01 193.849L4866.16 193.845L4866.16 193.692H4866.01V193.849ZM4877.83 637.049V637.206H4877.99L4877.99 637.045L4877.83 637.049ZM4778.06 193.849V193.692H4777.91L4777.91 193.845L4778.06 193.849ZM4766.24 637.049L4766.08 637.045L4766.08 637.206H4766.24V637.049ZM4832.38 334.008V334.165H4832.54V334.008H4832.38ZM4811.7 334.008H4811.54V334.165H4811.7V334.008ZM4837.7 209.915H4837.86V209.758H4837.7V209.915ZM4806.38 209.915V209.758H4806.22V209.915H4806.38ZM4837.7 226.206V226.363H4837.86V226.206H4837.7ZM4806.38 226.206H4806.22V226.363H4806.38V226.206ZM4865.85 193.853L4877.67 637.053L4877.99 637.045L4866.16 193.845L4865.85 193.853ZM4778.06 194.006H4866.01V193.692H4778.06V194.006ZM4766.4 637.053L4778.22 193.853L4777.91 193.845L4766.08 637.045L4766.4 637.053ZM4877.83 636.892H4766.24V637.206H4877.83V636.892ZM4832.22 310.353V334.008H4832.54V310.353H4832.22ZM4822.04 294.367C4824.82 294.367 4827.36 296.129 4829.22 299.023C4831.07 301.916 4832.22 305.921 4832.22 310.353H4832.54C4832.54 305.87 4831.37 301.804 4829.48 298.854C4827.59 295.905 4824.97 294.053 4822.04 294.053V294.367ZM4811.86 310.353C4811.86 305.918 4813.01 301.913 4814.86 299.021C4816.71 296.127 4819.25 294.367 4822.04 294.367V294.053C4819.11 294.053 4816.48 295.904 4814.59 298.852C4812.71 301.801 4811.54 305.867 4811.54 310.353H4811.86ZM4811.86 334.008V310.353H4811.54V334.008H4811.86ZM4832.38 333.851H4811.7V334.165H4832.38V333.851ZM4837.7 209.758H4806.38V210.072H4837.7V209.758ZM4837.86 226.206V209.915H4837.55V226.206H4837.86ZM4806.38 226.363H4837.7V226.049H4806.38V226.363ZM4806.22 209.915V226.206H4806.54V209.915H4806.22Z" fill="black"/>
<path d="M4861.79 166.771H4782.28V193.848H4861.79V166.771Z" fill="black"/>
<path d="M4857.38 160.188H4786.7V166.765H4857.38V160.188Z" fill="black"/>
</svg>
